<svg width="179" height="70" viewBox="0 0 179 70" fill="none" xmlns="http://www.w3.org/2000/svg">
<path fill-rule="evenodd" clip-rule="evenodd" d="M39.2191 40.1278L39.2279 46.6564C38.2474 46.9875 33.9278 49.9312 33.5113 49.781L30.0036 47.7523C28.4242 46.8721 26.8831 45.966 25.3645 45.0852C24.5676 44.6229 23.8343 44.2064 23.0784 43.7584C22.5471 43.4437 21.1856 42.7636 20.7909 42.3969L20.78 37.9271L33.4485 45.1978C33.7721 45.3412 34.9985 44.5655 35.26 44.3224L35.2723 42.4085C34.4912 42.0718 20.8892 34.136 20.7861 34.0391L20.7841 27.6464L26.3696 24.4085L39.1999 31.8035L39.2327 36.3102C38.6209 36.1046 28.1921 29.9339 26.668 29.0865C26.1327 28.7888 25.7141 29.46 24.7356 29.8472L24.7445 31.8438L39.2204 40.1265L39.2191 40.1278ZM37.0074 26.6686L40.8933 24.4092L46.4782 27.6505L46.4823 42.3976L42.5273 44.7001L42.5212 29.8486C41.923 29.6082 37.314 26.9008 37.0067 26.6686H37.0074ZM29.7373 22.5184L33.6615 20.2637L37.5243 22.5184L33.6035 24.7007L29.7366 22.5184H29.7373ZM17.4854 44.3252C18.0289 44.713 18.8599 45.133 19.4922 45.5031C21.8042 46.8571 33.5092 53.615 33.6595 53.6041C33.835 53.5918 41.0367 49.3836 41.7619 48.9636C43.0777 48.2002 44.4399 47.4416 45.7831 46.6482C46.4481 46.2549 47.1057 45.8868 47.8199 45.473C48.4263 45.1214 49.2552 44.7007 49.7756 44.3245L49.7797 25.7181C48.483 24.9138 47.0709 24.1231 45.7168 23.3679L37.5837 18.6639C37.2805 18.4856 33.8425 16.3743 33.5502 16.4392L19.3488 24.6249C18.9568 24.853 17.4854 25.5959 17.486 25.867L17.4874 37.1016L17.4867 44.3259L17.4854 44.3252Z" fill="#3E4095"/>
<path fill-rule="evenodd" clip-rule="evenodd" d="M31.4517 69.9474L29.4517 68.7928L27.3609 67.5855V65.1717V62.7579V60.3448L29.4517 59.1369L30.465 58.5517L31.5418 57.9303L33.632 56.7238L35.7221 55.5166L37.8129 54.31L39.7275 53.2045L39.903 53.1035L41.9939 51.8969L42.816 51.4223L44.0847 50.6897V50.6439C45.3301 49.9304 46.6009 49.2141 47.858 48.4718C47.9939 48.3913 48.1297 48.312 48.2656 48.2328V48.2765V50.6897V53.1035L46.1748 54.3107L44.0847 55.5172L42.4664 56.4513L41.9945 56.7238L39.9037 57.9303L37.8136 59.1369L35.7228 60.3448L34.8583 60.844L33.6326 61.5514L31.5425 62.7579V65.1717V67.5855V69.9993L31.4531 69.9474H31.4517ZM29.5623 54.2458L29.451 54.31L27.7269 55.3049L27.3602 55.5166L25.2701 56.7231L24.7982 56.4507H24.7975L23.1792 55.5166L21.7105 54.6685H21.7098L21.0891 54.31L18.9983 53.1028L16.9082 51.8962L14.818 50.689L13.2755 49.7986L12.7279 49.4824L10.6378 48.2759L10.1878 48.0164L8.54695 47.0693L6.45681 48.2759L4.36599 49.4824L2.77091 50.4029L2.27586 50.689V48.2759V45.8621L4.36599 44.6555L6.45681 43.4483L8.54695 42.2417L9.0099 42.5094L10.6371 43.449L12.7272 44.6562L14.818 45.8628L16.9082 47.0693L18.9983 48.2759L21.0891 49.4824L23.1792 50.689L25.2701 51.8962L25.3663 51.8409C26.8276 52.6808 28.2834 53.5166 29.5616 54.2458H29.5623ZM14.8966 41.0789L14.8187 41.0338L13.4032 40.2171L12.7279 39.8272L10.6378 38.6207V36.2069V33.7931V31.3793V28.9662V26.5524V24.1386V21.7248V19.311L8.54695 18.1045L6.45681 16.8979L4.36599 15.69L6.45681 14.4834L7.25913 14.0205L8.54695 13.2769L8.78729 13.4155L10.6378 14.4834L12.7279 15.69L14.8187 16.8979V19.311V21.7248V24.1386V26.5524V28.9662V31.3793V33.7931V36.2069L14.8966 36.252V37.3506V41.0795V41.0789ZM18.999 21.7023V19.311V16.8979L19.7371 16.4711L21.0891 15.69L21.9966 15.1663H21.9973L23.1792 14.4834L25.085 13.3834L25.2701 13.2762L27.3602 12.0696L28.1728 11.6005L29.451 10.8624L31.5411 9.65517L33.6313 8.44862L35.7214 7.24138V4.82759V2.41379V0L37.8122 1.20656L39.9024 2.41311V4.8269V7.2407V9.65449L37.8122 10.8617L37.085 11.2817L35.7214 12.069L33.6313 13.2755L33.6244 13.2796C33.6183 13.2796 33.6122 13.2796 33.6067 13.281L18.9983 21.7016L18.999 21.7023ZM37.9085 15.634L39.9024 14.4828L41.9932 13.2762L42.1782 13.3834L44.084 14.4834L45.266 15.1663H45.2666L46.1741 15.69L47.5261 16.4711L48.2642 16.8979L50.3544 18.1045L52.4438 19.311L54.5347 20.5176L56.6255 21.7241L58.7156 22.9314L60.8064 21.7241L62.8965 20.5176L64.9874 19.311V21.7248V24.1386L64.4288 24.4609L62.8965 25.3458L60.8064 26.5524L58.7156 27.759L58.5715 27.6757L56.6255 26.5524L54.5347 25.3458L53.2236 24.5886L52.5121 24.1775V24.0915C51.0017 23.1553 49.3575 22.2335 47.7801 21.354L38.3066 15.875C38.252 15.843 38.1106 15.7576 37.9092 15.6361L37.9085 15.634ZM52.5107 29.0044L54.5347 30.1728L56.6255 31.3793V33.7931V36.2069V38.6207V41.0338V43.4476V45.8614V48.2752V50.6883L58.7156 51.8955L60.8064 53.1021L62.8965 54.3093L60.8064 55.5159L58.7156 56.7224L57.3615 55.9406L56.6255 55.5159L54.5347 54.3093L53.4462 53.6811L52.4438 53.1021V50.6883V48.2752L52.4452 45.8614V45.8081C52.4664 45.7931 52.4869 45.7788 52.5073 45.7637L52.5107 29.0044V29.0044ZM22.0799 10.2902L23.1786 9.65517L23.7794 9.30898L25.2694 8.4493L26.8665 7.5268L27.3595 7.24206L29.4503 6.03551L31.5405 4.82895V2.41516V0.0013649L29.4503 1.20792L27.3595 2.41447L25.2694 3.62171L24.9573 3.80198L23.1792 4.82827L21.8696 5.58416L21.0891 6.03414L19.9891 6.66985C19.9693 6.65756 19.9502 6.64595 19.9297 6.63435H19.9269V6.63298C19.9092 6.62274 19.8914 6.6125 19.8744 6.60294H19.8634V6.59679C19.8484 6.58791 19.8327 6.57972 19.817 6.57084H19.7999V6.56128C19.677 6.49437 19.5521 6.43428 19.4237 6.37965H19.4175V6.37692C19.367 6.35575 19.3165 6.33527 19.2653 6.31546H19.2585V6.31274C19.2318 6.30249 19.2052 6.29293 19.1786 6.28337H19.1629V6.27791C19.1376 6.26903 19.1116 6.26016 19.0857 6.25128H19.0673V6.24513C18.9641 6.21099 18.8597 6.18163 18.7538 6.15568H18.717V6.14681C18.6828 6.13861 18.6487 6.1311 18.6145 6.12427H18.59V6.11881C18.5428 6.10925 18.4964 6.10038 18.4493 6.09218H18.4309V6.08945C18.3646 6.07852 18.2977 6.06897 18.2308 6.06077H18.1762V6.05463C17.787 6.01297 17.3909 6.02322 16.9983 6.08808V6.09286H16.9717C16.9273 6.10038 16.8829 6.10925 16.8392 6.11813V6.12496H16.8064C16.7217 6.14271 16.6371 6.16388 16.5531 6.18709V6.18914H16.5469C16.5169 6.19734 16.4875 6.20553 16.4575 6.21509V6.22123H16.4377C16.4124 6.22875 16.3872 6.23694 16.3619 6.24513V6.25265H16.338C16.3141 6.26084 16.2902 6.26903 16.2663 6.27723V6.28474H16.2458C16.2206 6.29362 16.1953 6.30249 16.1707 6.31274V6.31683H16.1598C16.1106 6.33595 16.0608 6.35575 16.0116 6.37624V6.38033H16.002C15.9843 6.38785 15.9659 6.39604 15.9474 6.40423V6.41243H15.929C15.7938 6.4732 15.6606 6.5408 15.5302 6.61659C15.339 6.72653 15.1601 6.84944 14.9928 6.98259V6.986H14.9887C14.7928 7.14169 14.6139 7.31239 14.4513 7.49471V7.49539H14.4507C14.396 7.55684 14.3428 7.61966 14.2922 7.68385V7.68658H14.2902C14.1482 7.86617 14.0212 8.05599 13.9099 8.25333V8.25947H13.9065C13.8382 8.3817 13.7754 8.50734 13.7194 8.63503V8.64117H13.7166C13.6709 8.74496 13.6292 8.8508 13.5923 8.95732V8.95937H13.5917C13.5814 8.9901 13.5705 9.02083 13.5609 9.05224V9.05497H13.5596C13.5234 9.16695 13.492 9.27962 13.4653 9.39365V9.40526H13.4626C13.4387 9.50836 13.4182 9.61284 13.4018 9.71731V9.72345H13.4005C13.3882 9.80266 13.3779 9.88187 13.3697 9.96176V9.97815H13.3677C13.3411 10.252 13.3397 10.5292 13.3657 10.8057H13.3697V10.8426C13.3773 10.915 13.3861 10.9874 13.3977 11.0604H13.4018V11.0857C13.4107 11.141 13.4203 11.1963 13.4312 11.2516H13.4339V11.2632C13.4592 11.3868 13.4899 11.5111 13.5261 11.6333H13.5295V11.6442C13.5575 11.7364 13.5883 11.8286 13.6217 11.9201H13.6251V11.9283C13.6442 11.9788 13.6641 12.0294 13.6845 12.0792H13.6886V12.0888C13.7596 12.2561 13.8409 12.4206 13.9338 12.5818C13.9665 12.6384 14 12.6931 14.0348 12.7477H14.0389V12.7545C14.058 12.7846 14.0778 12.8139 14.097 12.8433H14.1024V12.8508C14.1523 12.9245 14.2042 12.9962 14.2581 13.0659H14.2622V13.0707C14.3025 13.1233 14.3441 13.1745 14.3865 13.225H14.3892V13.2284C14.5463 13.4128 14.7156 13.5814 14.8966 13.7344H14.8986V13.7364C14.9908 13.8143 15.0864 13.888 15.184 13.9577H15.1854V13.9583C15.2154 13.9795 15.2462 14.0007 15.2762 14.0212H15.281V14.0239C15.3117 14.0444 15.3431 14.0649 15.3738 14.0847H15.3766V14.086C15.4278 14.1181 15.4797 14.1495 15.5323 14.1803H15.5364V14.1823C15.6791 14.2643 15.8259 14.338 15.9761 14.4029H15.9822V14.4056C16.2322 14.5135 16.4916 14.5975 16.7573 14.6576H16.7784V14.6623C16.8856 14.6862 16.9942 14.7054 17.1028 14.7211H17.1287V14.7245C17.4121 14.7634 17.7002 14.7743 17.9877 14.7566V14.7532H18.043C18.3339 14.732 18.6248 14.6801 18.9109 14.5988V14.5941H18.9266C19.0495 14.5586 19.1717 14.5176 19.2933 14.4705V14.4664H19.3028C19.3534 14.4466 19.4025 14.4261 19.4524 14.4042V14.4029H19.4558C19.6053 14.3373 19.7528 14.2636 19.8983 14.1803L19.8996 14.1796C19.931 14.1611 19.9624 14.1427 19.9938 14.1236V14.1168H20.0055C20.0335 14.099 20.0621 14.0819 20.0894 14.0635V14.0526H20.1058C20.1215 14.0423 20.1372 14.0321 20.153 14.0212V14.0205H20.1536C20.1639 14.0137 20.1741 14.0061 20.185 13.9993V13.9884H20.2007C20.2274 13.97 20.254 13.9515 20.2806 13.9324V13.9249H20.2909C20.3865 13.8552 20.4787 13.7822 20.5674 13.7057V13.7016H20.5722C20.5811 13.6934 20.59 13.6859 20.5995 13.6777V13.6695H20.6084C20.6159 13.6627 20.6234 13.6565 20.6309 13.6497V13.6381H20.6439C20.7634 13.5309 20.8754 13.4169 20.9812 13.2987V13.2878H20.9908L21.0133 13.2625V13.2564H21.0188C21.0276 13.2462 21.0365 13.2359 21.0454 13.2257V13.2243H21.0468C21.0898 13.1731 21.1321 13.1212 21.1731 13.0686V13.0652H21.1758C21.2072 13.0236 21.2386 12.9819 21.2687 12.9403V12.9382H21.2701C21.2912 12.9088 21.3117 12.8788 21.3322 12.8488V12.8426H21.3363C21.3568 12.8126 21.3766 12.7825 21.3957 12.7518V12.747H21.3991C21.4305 12.6972 21.4619 12.6466 21.4913 12.5954V12.5879H21.4954C21.5637 12.4705 21.6258 12.3503 21.6825 12.2274V12.2062H21.692C21.6996 12.1898 21.7071 12.1734 21.7139 12.1571V12.1427H21.72C21.7289 12.1222 21.7371 12.1024 21.7453 12.0826V12.0785H21.7467C21.7685 12.0266 21.789 11.9741 21.8088 11.9208V11.9194H21.8095C21.8204 11.8901 21.8307 11.8614 21.8409 11.832V11.8238H21.8436C21.8532 11.7945 21.8627 11.7658 21.8723 11.7371V11.7282H21.875C21.8853 11.6968 21.8948 11.6654 21.9044 11.634V11.6326C21.9153 11.5958 21.9256 11.5582 21.9358 11.5207V11.5056H21.9399C21.9624 11.4196 21.9822 11.3336 21.9993 11.2462V11.2188H22.0048C22.0143 11.1683 22.0232 11.1178 22.0314 11.0673V11.0283H22.0376C22.0478 10.9573 22.0567 10.887 22.0635 10.8153V10.7422H22.0696C22.0813 10.5927 22.086 10.4425 22.0826 10.2916L22.0799 10.2902ZM18.7641 60.2089C19.2482 59.3704 20.3202 59.0836 21.1588 59.5671C21.9973 60.0519 22.2841 61.1233 21.8013 61.9618C21.3165 62.8003 20.2444 63.0871 19.4066 62.6036C18.5681 62.1195 18.2813 61.0475 18.7648 60.2089H18.7641ZM48.0294 60.4793C47.5452 59.6408 47.8327 58.5688 48.6712 58.0847C49.509 57.6005 50.5818 57.8873 51.0652 58.7258C51.5493 59.5644 51.2625 60.6364 50.4233 61.1205C49.5848 61.6046 48.5128 61.3172 48.0294 60.4787V60.4793ZM62.8952 35.2701C61.9276 35.2701 61.1424 34.4848 61.1424 33.5166C61.1424 32.5476 61.9276 31.7637 62.8952 31.7637C63.8641 31.7637 64.6487 32.5476 64.6487 33.5166C64.6487 34.4848 63.8641 35.2701 62.8952 35.2701ZM48.4978 9.79037C48.0137 10.6289 46.9416 10.9157 46.1031 10.4322C45.2646 9.94879 44.9771 8.87607 45.4612 8.03824C45.9454 7.19973 47.0167 6.91226 47.8559 7.39638C48.6937 7.87982 48.9812 8.95186 48.4978 9.79037ZM19.2325 9.51997C19.7166 10.3585 19.4292 11.4305 18.5906 11.9146C17.7521 12.3981 16.6801 12.1113 16.196 11.2728C15.7125 10.4343 16 9.36224 16.8378 8.87811C17.6763 8.39467 18.7484 8.68146 19.2325 9.51997ZM4.36667 34.7293C5.33424 34.7293 6.11949 35.5138 6.11949 36.4821C6.11949 37.451 5.33424 38.2349 4.36667 38.2349C3.39774 38.2349 2.61318 37.4503 2.61318 36.4821C2.61318 35.5138 3.39774 34.7293 4.36667 34.7293ZM6.45681 32.648C6.46978 32.6555 6.48276 32.6623 6.49573 32.6692V32.6719H6.50051C6.5524 32.7013 6.6043 32.7313 6.65483 32.7627V32.7675H6.66234C6.6917 32.7859 6.72106 32.8044 6.75043 32.8235V32.831H6.76204C6.79003 32.8494 6.81803 32.8686 6.84534 32.8877V32.8952H6.85558C6.92796 32.9457 6.99898 32.9983 7.06794 33.0529V33.0543H7.06999L7.09935 33.0782V33.0864H7.10959C7.16012 33.1273 7.20996 33.1697 7.25844 33.2127V33.2141H7.25981C7.27005 33.2229 7.2803 33.2325 7.29054 33.2414V33.2462H7.29532C7.37043 33.3138 7.44281 33.3848 7.51315 33.4572V33.4688H7.52407L7.54524 33.4913V33.5009H7.55411C7.56163 33.509 7.56913 33.5172 7.57664 33.5254V33.5329H7.58347C7.59166 33.5418 7.59986 33.5514 7.60874 33.5609V33.565H7.61284C7.6224 33.5753 7.63196 33.5855 7.64083 33.5964V33.5971H7.64152C7.69614 33.6593 7.74872 33.7228 7.79993 33.7876C7.83271 33.8293 7.86412 33.8709 7.89484 33.9133V33.9146H7.89621C7.91738 33.944 7.93786 33.9734 7.95834 34.0027V34.0102H7.96313C7.98293 34.0396 8.00273 34.0683 8.02185 34.0976V34.1058H8.02731C8.09354 34.2069 8.155 34.3121 8.21304 34.4186V34.424H8.21577C8.22533 34.4425 8.23489 34.4609 8.24513 34.4793V34.4875H8.24923C8.25879 34.5053 8.26766 34.5237 8.27654 34.5422V34.5517H8.28133C8.2902 34.5702 8.29976 34.5886 8.30863 34.6077V34.6152H8.31205C8.32161 34.6357 8.33117 34.6555 8.34005 34.676V34.6794H8.34142C8.36327 34.7272 8.38374 34.775 8.40355 34.8235V34.8385H8.4097C8.4295 34.8877 8.44862 34.9375 8.46705 34.9874V34.9976H8.47115C8.48071 35.0242 8.49027 35.0509 8.49914 35.0775V35.0932H8.5046C8.51348 35.1205 8.52236 35.1478 8.53123 35.1751V35.1881H8.53534C8.5565 35.2578 8.57699 35.3281 8.59474 35.3991V35.4114H8.59816C8.6084 35.4517 8.61796 35.492 8.62683 35.5323V35.5705H8.63503C8.64322 35.6101 8.65141 35.6497 8.65824 35.6893V35.7296H8.66576C8.67463 35.7822 8.68283 35.8348 8.69034 35.8873V35.8887C8.70468 35.9945 8.7156 36.1017 8.72175 36.2103V36.3346H8.72789C8.72994 36.3837 8.73062 36.4336 8.73062 36.4834C8.73062 36.551 8.72858 36.618 8.72585 36.6849H8.72175V36.7545C8.7156 36.8597 8.70536 36.9641 8.69171 37.0666H8.69034V37.0782C8.68214 37.1383 8.67258 37.1984 8.66234 37.2578H8.65824V37.2776C8.63366 37.4114 8.60362 37.5425 8.56674 37.6716H8.56265V37.6859C8.52714 37.8109 8.48549 37.9338 8.43974 38.0533H8.43565V38.0642C8.35575 38.2704 8.26084 38.4691 8.15159 38.6582H8.14954V38.6623C8.11949 38.7149 8.0874 38.7661 8.05531 38.8173H8.05394V38.8201C8.01365 38.8843 7.97132 38.9471 7.92762 39.0085H7.92693V39.0099C7.89689 39.0522 7.86548 39.0946 7.83339 39.1362H7.83134V39.1389C7.79037 39.1922 7.74872 39.2441 7.7057 39.2953H7.70433V39.2974C7.39911 39.6593 7.03584 39.9713 6.62888 40.2185H6.62205V40.2226C6.57016 40.254 6.5169 40.2847 6.46364 40.3141H6.46296C6.42335 40.336 6.38307 40.3571 6.34278 40.3776H6.33527V40.381C6.31615 40.3906 6.29703 40.4001 6.27859 40.409H6.27176V40.4124C6.25196 40.422 6.23216 40.4315 6.21167 40.4411H6.20758V40.4425C6.13657 40.4752 6.06487 40.5067 5.99181 40.536H5.98498V40.5387C5.83339 40.5995 5.6777 40.6514 5.51792 40.6951H5.50768V40.6978C5.47013 40.7081 5.43257 40.7176 5.39433 40.7272H5.38V40.7306C5.33834 40.7409 5.296 40.7504 5.25298 40.7593C5.19562 40.7709 5.13827 40.7812 5.08023 40.7907H5.0618V40.7934C4.8351 40.8303 4.60293 40.8488 4.36599 40.8488C4.2028 40.8488 4.04234 40.8399 3.88392 40.8221H3.88255C3.80812 40.8139 3.73438 40.8044 3.66132 40.7921V40.79H3.65107C3.54728 40.773 3.44418 40.7518 3.34312 40.7279V40.7265H3.33697C3.29669 40.717 3.25572 40.706 3.21611 40.6951V40.6944H3.21338C3.08432 40.6589 2.95801 40.6186 2.83373 40.5715V40.5667H2.82075C2.53328 40.4582 2.26084 40.3202 2.00546 40.1564V40.153H2.00068C1.93717 40.112 1.87572 40.0696 1.81495 40.0259V40.0253H1.81427C1.77125 39.9945 1.72891 39.9631 1.68726 39.9304V39.9297H1.68658C1.62171 39.8791 1.55821 39.8272 1.49608 39.7726V39.7699H1.49334C1.4831 39.761 1.47354 39.7528 1.46398 39.7439V39.7378H1.45715C1.32468 39.619 1.19904 39.4927 1.0816 39.3595V39.3561H1.07886C1.02492 39.2946 0.973029 39.2318 0.9225 39.1676V39.1649H0.920449C0.888356 39.1239 0.856947 39.083 0.826902 39.0406V39.0379H0.824852C0.758618 38.9457 0.695114 38.8515 0.636391 38.7545V38.7518H0.634349C0.590648 38.6794 0.54899 38.6064 0.509386 38.5319V38.5292H0.508019C0.497777 38.5101 0.487538 38.491 0.477979 38.4718V38.4657H0.474561C0.465002 38.4466 0.455448 38.4274 0.445888 38.4076V38.4022H0.443154C0.433594 38.3817 0.424032 38.3619 0.414472 38.3414V38.338H0.413105C0.355065 38.2144 0.301809 38.0874 0.255377 37.957V37.9556H0.254693C0.243768 37.9256 0.233528 37.8955 0.223286 37.8648V37.86H0.221919C0.211676 37.8286 0.20143 37.7972 0.19187 37.7658V37.7644H0.191187C0.137926 37.5924 0.0955918 37.4155 0.0641817 37.2346V37.2236H0.0628231C0.051215 37.1567 0.0409683 37.0884 0.0327744 37.0201V37.001H0.0307239C0.014336 36.8631 0.00409829 36.7238 0.00136699 36.5824V36.5237H0.000683494C0.000683494 36.5094 0 36.4957 0 36.4814C0 36.4739 0 36.467 0 36.4602H0.00136699V36.3817C0.00409829 36.2472 0.0136589 36.1133 0.0279982 35.9822H0.0327744V35.942C0.0402855 35.8805 0.0491632 35.8197 0.0594056 35.7596H0.0641817V35.7275C0.0716928 35.6845 0.0798857 35.6422 0.0887625 35.6005H0.0962809V35.5637C0.105158 35.5227 0.114028 35.4817 0.124271 35.4408H0.128372V35.4257C0.153636 35.3233 0.183 35.2223 0.215776 35.1226H0.223969V35.0973C0.232163 35.0734 0.240355 35.0502 0.247866 35.0263H0.255377V35.0051C0.264253 34.9805 0.273132 34.956 0.282691 34.9314H0.287467V34.9198C0.365993 34.7142 0.460222 34.5162 0.568108 34.3264H0.57426V34.3161C0.584502 34.2984 0.594741 34.2806 0.604984 34.2629H0.605667V34.2615C0.643905 34.1973 0.683509 34.1338 0.724478 34.0717H0.733355V34.0587C0.751792 34.0307 0.770225 34.0034 0.790027 33.9761H0.797537V33.9659C0.818022 33.9372 0.838508 33.9092 0.858993 33.8805H0.861044V33.8778C0.959371 33.7453 1.06521 33.6183 1.17788 33.4981H1.17924V33.4968C1.1888 33.4865 1.19836 33.4763 1.20792 33.4667H1.21133V33.4633C1.22021 33.4537 1.22977 33.4442 1.23865 33.4346H1.24274V33.4298C1.25162 33.421 1.26118 33.4114 1.27006 33.4025H1.27484V33.3977C1.28372 33.3889 1.29259 33.38 1.30215 33.3704H1.30693V33.3657C1.32742 33.3458 1.3479 33.326 1.36839 33.3062H1.37111V33.3042C1.38136 33.294 1.39229 33.2844 1.40253 33.2748C1.46193 33.2202 1.52202 33.1676 1.58415 33.1157H1.59372V33.1082C1.60328 33.1 1.61284 33.0918 1.62308 33.0843H1.62581V33.0823C1.70775 33.0167 1.79174 32.9532 1.87777 32.8931H1.88051V32.8911C1.91055 32.8699 1.94128 32.8494 1.972 32.8289H1.9761V32.8262C2.02458 32.7941 2.07374 32.7634 2.12427 32.7334H2.13588V32.7265C2.18232 32.6985 2.22943 32.6712 2.27723 32.6453V31.3759V28.9628V26.549V24.1352V21.7214V19.3076L4.36736 20.5142L5.57392 21.2106L6.45817 21.7214V24.1352V26.549V28.9628V31.3759V32.6453L6.45681 32.648ZM18.0082 57.3575C18.0533 57.3301 18.099 57.3035 18.1448 57.2776H18.1454C18.1646 57.2666 18.1837 57.2564 18.2021 57.2462H18.2083V57.2427C18.226 57.2332 18.2438 57.2236 18.2615 57.2141H18.2718V57.2093C18.2888 57.2004 18.3066 57.1915 18.3237 57.1827H18.3353V57.1765C18.353 57.1676 18.3708 57.1588 18.3885 57.1506H18.3988V57.1458C18.4179 57.1369 18.437 57.128 18.4561 57.1192H18.4623V57.1164C18.5347 57.0836 18.607 57.0522 18.6808 57.0236H18.6849V57.0215C18.7115 57.0113 18.7374 57.001 18.7641 56.9915H18.7805V56.9853C18.8044 56.9764 18.8283 56.9682 18.8522 56.9601H18.8761V56.9519C19.014 56.9054 19.1533 56.8651 19.2946 56.8324H19.3213V56.8262C19.3616 56.8173 19.4025 56.8085 19.4435 56.801H19.449V56.7996C19.5937 56.7716 19.7398 56.7504 19.8873 56.7368H19.9898V56.7286C20.1905 56.7149 20.3926 56.7156 20.5947 56.7299V56.7375H20.6828C20.76 56.7443 20.8365 56.7538 20.9129 56.7648V56.7695H20.943C20.9962 56.7777 21.0502 56.7873 21.1034 56.7975V56.8016H21.1246C21.1704 56.8105 21.2168 56.8208 21.2625 56.831V56.8331H21.2728C21.3117 56.8419 21.3506 56.8522 21.3896 56.8624V56.8651H21.3998C21.4708 56.8843 21.5418 56.9047 21.6122 56.9273V56.9286H21.6162C21.6463 56.9389 21.677 56.9491 21.7078 56.9594V56.9607H21.7118C21.8177 56.9976 21.9222 57.0386 22.0266 57.0843V57.0884H22.0355C22.0539 57.0966 22.0724 57.1048 22.0901 57.113V57.1205H22.1058C22.1222 57.128 22.1379 57.1355 22.1536 57.143V57.1519H22.1728C22.1878 57.1594 22.2021 57.1663 22.2171 57.1738V57.184H22.2376C22.252 57.1915 22.2663 57.1984 22.2806 57.2059V57.2154H22.2998C22.3544 57.2441 22.409 57.2735 22.463 57.3049C22.5531 57.3568 22.6412 57.4121 22.7265 57.4694C22.8139 57.5288 22.8986 57.5903 22.9805 57.6552V57.6606H22.9881C23.0399 57.7016 23.0905 57.7433 23.1396 57.7863V57.7876H23.1417C23.3015 57.9263 23.4496 58.0744 23.5855 58.2322V58.2335H23.5869C23.7822 58.4595 23.9522 58.704 24.0949 58.9614V58.9655H24.0976C24.1079 58.9833 24.1174 59.0017 24.127 59.0201V59.0297H24.1318C24.1748 59.111 24.2158 59.1943 24.254 59.2776V59.2844H24.2567C24.2895 59.3568 24.3202 59.4305 24.3489 59.505V59.507H24.3496C24.3974 59.6306 24.4397 59.7562 24.4759 59.8839V59.8887H24.4773C24.5005 59.97 24.521 60.0512 24.5394 60.1331V60.1434H24.5422C24.5674 60.2561 24.5879 60.3694 24.6036 60.4834V60.493H24.605C24.6439 60.7764 24.6548 61.0645 24.6378 61.3527H24.635V61.3868C24.6241 61.5452 24.605 61.7036 24.5763 61.8621H24.5715V61.8867C24.5469 62.0171 24.5169 62.1468 24.48 62.2759H24.4759V62.2902C24.4404 62.4138 24.3988 62.5367 24.3523 62.6582H24.3489V62.6678C24.3291 62.7183 24.3086 62.7675 24.2868 62.8173H24.2854V62.8214C24.2199 62.973 24.1448 63.1226 24.0601 63.2687C24.0109 63.354 23.959 63.4367 23.9044 63.5179H23.903V63.52C23.8525 63.5958 23.7999 63.6695 23.7453 63.7405H23.7439V63.7426C23.703 63.7965 23.6606 63.8491 23.6176 63.9003H23.6162V63.9017C23.4606 64.0867 23.2912 64.2561 23.111 64.4097H23.1069V64.4138C23.016 64.491 22.9232 64.564 22.8269 64.633H22.8201V64.6378C22.6378 64.7682 22.4466 64.8829 22.2485 64.9833H22.2472V64.984C22.226 64.9949 22.2055 65.0051 22.1844 65.0154H22.1837C21.8539 65.1751 21.5049 65.2926 21.1471 65.365H21.1335V65.3677C21.0017 65.3943 20.8686 65.4141 20.7347 65.4285H20.7197V65.4298C20.4254 65.4599 20.1263 65.4606 19.8286 65.4298V65.4285H19.8149C19.6811 65.4141 19.548 65.3943 19.4155 65.367V65.3643H19.4046C19.2803 65.339 19.1567 65.3076 19.0338 65.2707V65.2687H19.0263C18.9327 65.2407 18.8399 65.2093 18.7477 65.1745V65.1731H18.745C18.6931 65.1533 18.6405 65.1328 18.5886 65.111V65.1096H18.5845C18.4193 65.0399 18.2567 64.9594 18.097 64.8672C18.0908 64.8638 18.0847 64.8597 18.0792 64.8563V64.8549H18.0765C18.0451 64.8365 18.0143 64.818 17.9829 64.7989V64.7914H17.9706C17.9426 64.7736 17.9153 64.7566 17.8873 64.7381V64.7272H17.8709C17.8552 64.717 17.8395 64.706 17.8231 64.6958C17.8129 64.6883 17.802 64.6815 17.7917 64.6739V64.6637H17.7767C17.7494 64.6446 17.7228 64.6255 17.6961 64.6063V64.6002H17.6879C17.5917 64.5292 17.4988 64.4554 17.4094 64.3776C17.3984 64.368 17.3882 64.3585 17.3779 64.3496V64.3455H17.3732L17.3459 64.3209V64.3134H17.3383C17.3301 64.3059 17.3219 64.2991 17.3144 64.2916V64.2813H17.3035C17.2188 64.2028 17.1376 64.1209 17.0597 64.0362V64.0273H17.0509C17.0434 64.0184 17.0352 64.0102 17.0277 64.0014V63.9952H17.0229C17.014 63.985 17.0051 63.9754 16.9962 63.9652V63.9631H16.9942C16.9512 63.914 16.9095 63.8641 16.8686 63.8129V63.804H16.8617C16.8535 63.7938 16.8453 63.7835 16.8371 63.7726C16.8044 63.731 16.773 63.6886 16.7422 63.6456V63.6449H16.7415C16.7204 63.6156 16.6992 63.5855 16.678 63.5555V63.55H16.6739C16.6535 63.52 16.6337 63.4906 16.6145 63.4599V63.4544H16.6111C16.5797 63.4053 16.549 63.3554 16.519 63.3049V63.2946H16.5128C16.4698 63.2216 16.4295 63.1478 16.3913 63.0727V63.072C16.3803 63.0509 16.3701 63.0304 16.3598 63.0092V63.0085C16.3264 62.9402 16.2943 62.8706 16.2642 62.8003V62.7852H16.2581C16.2492 62.7648 16.2404 62.7436 16.2322 62.7231V62.7217H16.2315C16.1973 62.6364 16.1652 62.5504 16.1366 62.4636V62.4356H16.1277C16.1202 62.4117 16.1127 62.3878 16.1052 62.3639V62.34H16.0976C16.0894 62.312 16.0813 62.2834 16.0731 62.2554V62.2445H16.0703C16.0478 62.1625 16.0273 62.0792 16.0096 61.9952V61.9577H16.002C15.9932 61.9153 15.9857 61.873 15.9781 61.8307V61.7986H15.9727C15.9624 61.7378 15.9536 61.677 15.9461 61.6162V61.6074H15.9454C15.9276 61.4647 15.9174 61.3213 15.9146 61.1772V61.0031C15.9146 60.9949 15.9146 60.9867 15.9146 60.9792L14.8153 60.3448L14.5777 60.2076L12.7252 59.1376L10.635 57.931L8.54421 56.7245L6.45408 55.5179L4.36327 54.3114L6.45408 53.1041L7.1608 52.6958L8.54421 51.8969L8.88016 52.0908L10.635 53.1035L12.7252 54.3107L14.816 55.5172L16.9061 56.7245L18.0061 57.3588L18.0082 57.3575ZM45.1827 59.7084C45.1792 59.5555 45.184 59.4032 45.1963 59.2516H45.2025V59.1833C45.21 59.1103 45.2188 59.0379 45.2291 58.9655H45.2339V58.9314C45.2421 58.8788 45.2509 58.8262 45.2612 58.7743H45.2653V58.7525C45.2742 58.7067 45.2844 58.661 45.2946 58.6152H45.2974V58.6057C45.3062 58.5667 45.3165 58.5271 45.3267 58.4882H45.3295V58.4787C45.337 58.45 45.3452 58.4213 45.3534 58.3926H45.3609V58.3646C45.3711 58.3312 45.3814 58.2984 45.3916 58.2649H45.393V58.2622C45.4032 58.2315 45.4134 58.2001 45.4237 58.17H45.4244V58.1673C45.4612 58.0608 45.5029 57.9556 45.548 57.8518H45.5521V57.8436C45.5603 57.8252 45.5684 57.8068 45.5766 57.7883H45.5835V57.7733C45.591 57.7569 45.5985 57.7412 45.606 57.7255H45.6156V57.7057C45.664 57.6046 45.7173 57.5049 45.774 57.4066H45.7747V57.4053C45.7931 57.3738 45.8115 57.3418 45.8307 57.311H45.8382V57.2994C45.8552 57.2714 45.8737 57.2434 45.8914 57.2154H45.9017V57.1997C45.97 57.0959 46.043 56.9949 46.1202 56.8972H46.125V56.8911C46.1318 56.8822 46.1386 56.874 46.1461 56.8651H46.157V56.8515C46.1973 56.8023 46.2383 56.7538 46.2806 56.706H46.2847V56.7019C46.2929 56.6924 46.3011 56.6835 46.3093 56.6739H46.3168V56.6658C46.394 56.5811 46.4752 56.4985 46.5599 56.4193H46.5715V56.4083C46.579 56.4008 46.5865 56.394 46.5941 56.3872H46.6029V56.379C46.6118 56.3715 46.62 56.3633 46.6289 56.3551H46.635V56.3503C46.6453 56.3414 46.6555 56.3325 46.6651 56.3237H46.6664V56.3223C46.7675 56.2335 46.874 56.1489 46.9839 56.069H46.9846C47.0147 56.0478 47.044 56.0266 47.0748 56.0055H47.0802V56.0014C47.1096 55.9809 47.1396 55.9611 47.1697 55.9413H47.1751V55.9372C47.2373 55.8976 47.3001 55.8587 47.3643 55.8218C47.4271 55.7856 47.4906 55.7508 47.5541 55.718H47.5568V55.7166C47.5773 55.7064 47.5971 55.6961 47.6176 55.6866H47.6203V55.6852C47.6415 55.675 47.662 55.6647 47.6832 55.6552H47.6838C47.7555 55.621 47.8272 55.5896 47.8996 55.5603H47.9064V55.5575C47.9583 55.5364 48.0109 55.5159 48.0635 55.4968H48.0656V55.4961C48.1277 55.4735 48.1905 55.4524 48.2533 55.4326H48.2561V55.4312C48.3298 55.4087 48.4042 55.3875 48.478 55.3684H48.4787C48.5763 55.3438 48.6746 55.3226 48.773 55.3049H48.7969V55.3001C48.9758 55.2687 49.156 55.2496 49.3356 55.2407H49.3697V55.2393C49.4442 55.2366 49.5186 55.2352 49.5924 55.2359V55.2407H49.7494C49.8566 55.2455 49.9631 55.255 50.0696 55.268V55.2728H50.1052C50.2212 55.2878 50.3366 55.3076 50.4513 55.3322V55.337H50.4732C50.5947 55.3636 50.7149 55.395 50.8337 55.4319V55.4326H50.8358C50.8672 55.4421 50.8979 55.4524 50.9293 55.4626V55.4647H50.9341C50.9641 55.4749 50.9942 55.4851 51.0242 55.4961V55.4968H51.0256C51.0789 55.5159 51.1314 55.5357 51.1833 55.5568V55.5603H51.1922C51.2646 55.5896 51.3356 55.621 51.4066 55.6538V55.6552H51.41C51.4517 55.675 51.4933 55.6948 51.5336 55.7159V55.7187H51.5398C51.5589 55.7289 51.5787 55.7392 51.5978 55.7487V55.7501H51.6005C51.7412 55.8252 51.8785 55.9078 52.0116 55.9986V56.0048H52.0205C52.0498 56.0246 52.0785 56.0451 52.1072 56.0656V56.0683H52.1106C52.1523 56.0983 52.1939 56.1297 52.2342 56.1618V56.1639H52.2369C52.3011 56.2137 52.3639 56.2656 52.4254 56.3196V56.323H52.4295C52.5736 56.45 52.7108 56.5879 52.8392 56.7361V56.7368H52.8399C52.8829 56.7866 52.9252 56.8371 52.9662 56.8897V56.8959H52.971C53.0352 56.9778 53.0973 57.0625 53.1567 57.1499C53.2154 57.2366 53.2721 57.326 53.3254 57.4189C53.4182 57.5801 53.5002 57.7446 53.5705 57.9119V57.914H53.5712C53.593 57.9665 53.6142 58.0198 53.634 58.0724V58.0731C53.6695 58.1666 53.7009 58.2615 53.7296 58.3564V58.3598H53.7303C53.7678 58.4848 53.7992 58.6118 53.8252 58.7381V58.7422H53.8259C53.8375 58.8003 53.8477 58.8583 53.8566 58.9164V58.9327H53.8593C53.8709 59.0079 53.8805 59.0836 53.8887 59.1594V59.1874H53.8914C53.9174 59.464 53.9174 59.7412 53.8908 60.015H53.8887V60.0362C53.8805 60.114 53.8709 60.1919 53.8586 60.2697H53.8566V60.282C53.8402 60.3851 53.8204 60.4869 53.7972 60.5879H53.7931V60.6057C53.774 60.6856 53.7535 60.7641 53.7303 60.8426H53.7296V60.8453C53.72 60.8768 53.7105 60.9075 53.7009 60.9389H53.6975V60.9478C53.6886 60.9764 53.6784 61.0058 53.6688 61.0338H53.6661V61.0427C53.6367 61.1253 53.6053 61.2072 53.5719 61.2885H53.5705V61.2912C53.4974 61.4647 53.4134 61.634 53.3185 61.7979H53.3151V61.8033C53.2851 61.8552 53.2537 61.9064 53.2216 61.957H53.2202V61.9597C53.2004 61.9911 53.1799 62.0218 53.1587 62.0526H53.156V62.0567C53.1055 62.1311 53.0522 62.2042 52.9969 62.2759C52.9464 62.3407 52.8945 62.4042 52.8406 62.4671H52.8378V62.4705C52.6582 62.6767 52.4575 62.8672 52.2369 63.0406H52.2328V63.0434C52.1345 63.1205 52.0314 63.1936 51.9242 63.2632H51.914V63.2694C51.8839 63.2885 51.8539 63.3076 51.8231 63.3267H51.8184V63.3295C51.7883 63.3479 51.7576 63.3663 51.7262 63.3841C51.6845 63.408 51.6422 63.4319 51.5999 63.4544H51.5951V63.4572C51.5766 63.4674 51.5575 63.477 51.5391 63.4865H51.5316V63.4906C51.5131 63.5002 51.4947 63.509 51.4763 63.5186H51.4688V63.5227C51.4496 63.5323 51.4305 63.5411 51.4107 63.5507H51.4046V63.5534C51.3834 63.563 51.3629 63.5725 51.3418 63.5821H51.3404V63.5828C51.238 63.6292 51.1335 63.6716 51.029 63.7098H51.0222V63.7125C50.9942 63.7228 50.9662 63.7323 50.9382 63.7419H50.9266V63.746C50.8979 63.7555 50.8692 63.7651 50.8399 63.774H50.831V63.7767C50.7149 63.8122 50.5975 63.8436 50.48 63.8689H50.4486V63.8757C50.4063 63.8846 50.3639 63.8935 50.3216 63.901H50.2895V63.9065C50.2322 63.9167 50.1748 63.9256 50.1174 63.9331H50.0983V63.9358C49.9891 63.9495 49.8798 63.959 49.7699 63.9652H49.5889V63.9706C49.5254 63.9713 49.4612 63.9706 49.3977 63.9679V63.9645H49.3213C49.2188 63.9597 49.1171 63.9508 49.016 63.9379V63.9324H48.9744C48.9136 63.9242 48.8528 63.9153 48.7934 63.9044V63.9003H48.7709C48.7252 63.8921 48.6801 63.8832 48.6343 63.8737V63.8689H48.6104C48.5756 63.8614 48.5415 63.8532 48.5067 63.845V63.8375H48.4752C48.4001 63.8184 48.3257 63.7979 48.252 63.7747V63.7733H48.2479C48.2171 63.7637 48.1864 63.7542 48.1564 63.7439V63.7412H48.1502C48.1202 63.731 48.0908 63.7207 48.0615 63.7105V63.7091H48.0587C48.0382 63.7016 48.0184 63.6941 47.9979 63.6866V63.6777H47.9734C47.9495 63.6688 47.9263 63.6593 47.9024 63.6497V63.6456H47.8928C47.8211 63.6163 47.7501 63.5848 47.6791 63.5521V63.55H47.675C47.6545 63.5405 47.6347 63.5309 47.6149 63.5213V63.5186H47.6087C47.5896 63.509 47.5705 63.4995 47.5514 63.4899V63.4865H47.5452C47.5261 63.4763 47.507 63.4667 47.4879 63.4565V63.4551H47.4845C47.4107 63.4162 47.3377 63.3745 47.2666 63.3308L46.1673 63.9659L44.0772 65.1724L41.9863 66.379L39.8955 67.5862L37.8054 68.7934L35.7146 70V67.5862V65.1724L37.5876 64.0915L37.8054 63.9659L39.8955 62.7593L41.9863 61.5527L44.0772 60.3462L45.1758 59.7105L45.1827 59.7084ZM60.8064 37.3499C60.7723 37.3308 60.7381 37.3117 60.704 37.2919V37.2871H60.6965C60.6453 37.2571 60.5947 37.2264 60.5449 37.1949V37.1922H60.5401C60.5094 37.1724 60.4793 37.1526 60.4493 37.1321V37.1287H60.4438C60.4138 37.1082 60.3831 37.0871 60.3537 37.0652V37.0645H60.353C60.31 37.0338 60.2677 37.0024 60.2267 36.9703V36.9689H60.2253C60.2151 36.9614 60.2048 36.9532 60.1946 36.945V36.9368H60.1844C60.1338 36.8965 60.084 36.8556 60.0348 36.8132V36.8091H60.0307C60.0212 36.801 60.0123 36.7928 60.0027 36.7846V36.7771H59.9945C59.886 36.6808 59.7829 36.579 59.6845 36.4725V36.4589H59.6716C59.6654 36.4513 59.6586 36.4445 59.6524 36.4377V36.4274H59.6429L59.6203 36.4022V36.3954H59.6142C59.6053 36.3851 59.5964 36.3755 59.5883 36.3653V36.3633H59.5869C59.5097 36.2738 59.436 36.1809 59.3657 36.0847V36.0772H59.3595C59.3397 36.0498 59.3206 36.0225 59.3015 35.9952V35.9816H59.2919C59.2154 35.8703 59.1444 35.7555 59.0782 35.6374V35.6313H59.0748C59.0652 35.6142 59.0557 35.5965 59.0461 35.5794V35.5678H59.0399C59.0311 35.5514 59.0229 35.5357 59.014 35.5193V35.5043H59.0065C58.9983 35.4886 58.9901 35.4729 58.9826 35.4565V35.4408H58.9751C58.9669 35.4244 58.9587 35.408 58.9512 35.3909V35.3773H58.945C58.9252 35.3356 58.9061 35.294 58.8884 35.2509V35.2496H58.8877C58.8658 35.199 58.8446 35.1478 58.8248 35.0959V35.0905H58.8228C58.8126 35.0645 58.8023 35.0379 58.7928 35.0113V34.9949H58.7866C58.7777 34.9703 58.7689 34.9457 58.7607 34.9211V34.8993H58.7532C58.7204 34.801 58.691 34.7006 58.6651 34.5995V34.5811H58.6603C58.6507 34.5428 58.6419 34.5046 58.633 34.4664V34.422H58.6234C58.6152 34.3844 58.6084 34.3476 58.6016 34.3093V34.2943H58.5988C58.5879 34.2335 58.5783 34.1728 58.5695 34.1106V34.1031H58.5688C58.5551 33.9993 58.5449 33.8942 58.5381 33.7883V33.6579H58.5319C58.5306 33.6108 58.5292 33.563 58.5292 33.5152C58.5292 33.4565 58.5306 33.3977 58.5333 33.3397H58.5381V33.2448C58.5442 33.1376 58.5551 33.0311 58.5695 32.9259H58.5701V32.9218C58.579 32.859 58.5886 32.7969 58.5995 32.7354H58.6023V32.7217C58.6111 32.6726 58.6214 32.6241 58.6316 32.5763H58.6343V32.5654C58.6432 32.5265 58.6521 32.4875 58.6623 32.4486H58.6664V32.4309C58.676 32.394 58.6856 32.3578 58.6958 32.3209H58.6985V32.3134C58.7347 32.1857 58.7771 32.0615 58.8242 31.9392H58.8255V31.9351C58.8542 31.8614 58.8849 31.7883 58.917 31.7166H58.9211V31.7091C58.9949 31.5473 59.0782 31.3902 59.1704 31.2393H59.1751V31.2311C59.2339 31.1355 59.296 31.0427 59.3616 30.9525H59.3663V30.9464C59.3964 30.9054 59.4264 30.8651 59.4571 30.8249H59.4612V30.8194C59.5022 30.7668 59.5446 30.7156 59.5876 30.6658H59.5883V30.6651C59.5971 30.6548 59.6067 30.6446 59.6156 30.6337H59.6203V30.6289C59.7378 30.4957 59.8634 30.3694 59.9959 30.252H60.0021V30.2465C60.0116 30.2376 60.0212 30.2287 60.0314 30.2206H60.0341V30.2185C60.1932 30.0799 60.3626 29.9529 60.5415 29.8389H60.5435V29.8375C60.5941 29.8047 60.646 29.774 60.6978 29.7433H60.7026V29.7405C60.9136 29.6176 61.1369 29.5118 61.3691 29.4251H61.3711V29.4244C61.3998 29.4135 61.4285 29.4032 61.4571 29.393H61.466V29.3896C61.5282 29.3684 61.591 29.3479 61.6545 29.3295H61.6572V29.3288C61.6941 29.3179 61.731 29.3076 61.7678 29.2974H61.7842V29.2926C61.9269 29.255 62.073 29.2243 62.2219 29.2018H62.2301V29.2004C62.3127 29.1874 62.396 29.1779 62.4793 29.1697H62.4841C62.6193 29.1567 62.7559 29.1506 62.8938 29.1506C63.1116 29.1506 63.3254 29.1669 63.535 29.1977V29.2025H63.5664C63.6736 29.2188 63.7801 29.2393 63.8846 29.2639V29.2666H63.8942C63.9338 29.2755 63.9727 29.2858 64.0123 29.296V29.2981H64.0212C64.0935 29.3172 64.1646 29.3383 64.2356 29.3616V29.3622H64.2376C64.269 29.3725 64.3004 29.3827 64.3312 29.3936H64.3325C64.635 29.4995 64.9225 29.6367 65.1909 29.8033V29.8081H65.1977C65.2933 29.8675 65.3868 29.931 65.477 29.9973V29.9993H65.4797C65.522 30.03 65.5637 30.0621 65.6046 30.0942H65.6053C65.6811 30.155 65.7555 30.2178 65.8279 30.2827V30.2854H65.8307C65.8402 30.2943 65.8498 30.3032 65.86 30.3121V30.3168H65.8648C65.9399 30.3865 66.0123 30.4589 66.0826 30.5333V30.5394H66.0881C66.097 30.549 66.1058 30.5579 66.114 30.5674V30.5715H66.1181C66.1277 30.5818 66.1366 30.5927 66.1461 30.6029V30.6036H66.1468C66.2014 30.6644 66.254 30.7272 66.3052 30.7907V30.7948H66.3086C66.34 30.8344 66.3708 30.874 66.4008 30.9143V30.9218H66.4063C66.437 30.9635 66.467 31.0051 66.4964 31.0481V31.0495H66.4971C66.5183 31.0809 66.5394 31.1123 66.5599 31.1437V31.1451H66.5606C66.5934 31.1949 66.6248 31.2462 66.6555 31.2981V31.3042H66.6596C66.7668 31.4865 66.8617 31.677 66.9423 31.8757V31.8771H66.943C67.0038 32.028 67.057 32.183 67.1014 32.3414V32.3544H67.1055C67.1157 32.3899 67.1246 32.4261 67.1335 32.4623V32.4814H67.1383C67.1608 32.5743 67.1806 32.6685 67.197 32.7634V32.7682H67.1977C67.21 32.8378 67.2202 32.9075 67.2291 32.9778V32.9908H67.2304C67.2468 33.1308 67.2571 33.2728 67.2605 33.4162V33.4681H67.2612C67.2612 33.4845 67.2619 33.5002 67.2619 33.5166C67.2619 33.5323 67.2619 33.548 67.2619 33.5637H67.2612V33.6163C67.2578 33.7487 67.2489 33.8798 67.2345 34.0089H67.2291V34.056C67.2202 34.1256 67.21 34.1953 67.1984 34.2636H67.197V34.2697C67.1895 34.31 67.182 34.3503 67.1738 34.3906H67.1649V34.4336C67.1567 34.4725 67.1478 34.5114 67.1383 34.5497H67.1328V34.5715C67.1 34.7047 67.0604 34.8358 67.0154 34.9635H67.0051V34.9915C66.9969 35.014 66.9887 35.0365 66.9805 35.0591H66.9737V35.0768C66.9635 35.1028 66.9532 35.1287 66.943 35.154H66.9416V35.1574C66.9027 35.2537 66.8603 35.3479 66.8146 35.4408V35.4414C66.8044 35.4626 66.7934 35.4838 66.7832 35.5043C66.7163 35.6354 66.6425 35.7631 66.5626 35.886H66.5606V35.8894C66.5401 35.9208 66.5196 35.9515 66.4985 35.9816H66.4964V35.9843C66.467 36.0259 66.4377 36.0676 66.4076 36.1086H66.4008V36.1174C66.3209 36.2246 66.2369 36.3271 66.1482 36.4268H66.1461V36.4288C66.1372 36.4391 66.1284 36.4486 66.1195 36.4589H66.1147V36.4643C66.1065 36.4732 66.0983 36.4821 66.0901 36.491H66.0826V36.4985C66.0751 36.5067 66.0676 36.5148 66.0601 36.5224H66.0505V36.5319C65.9802 36.605 65.9071 36.676 65.832 36.745H65.8279V36.7491C65.8177 36.7586 65.8074 36.7675 65.7972 36.7771H65.7965V36.7777C65.748 36.8208 65.6982 36.8631 65.6477 36.9041H65.6374V36.9123C65.6272 36.9204 65.6176 36.928 65.6081 36.9362H65.6053V36.9382C65.507 37.016 65.4053 37.0898 65.3008 37.1594H65.2871V37.1683C65.2591 37.1867 65.2305 37.2052 65.2018 37.2229H65.1915V37.2291C65.1601 37.2482 65.128 37.268 65.0966 37.2864C65.0604 37.3076 65.0236 37.3281 64.9867 37.3486V38.6186V41.0318V43.4455V45.8593V48.2731V50.6862L64.4916 50.4008L62.8959 49.4804L60.8057 48.2738V45.86V43.4462V41.0324V38.6193V37.3493L60.8064 37.3499ZM49.255 12.6405C49.2318 12.6541 49.2086 12.6685 49.1854 12.6821H49.1813V12.6842C49.1642 12.6944 49.1471 12.704 49.1301 12.7136H49.1178V12.7204C49.1028 12.7293 49.0877 12.7375 49.072 12.7456H49.0536V12.7559C48.93 12.8228 48.8037 12.8829 48.6753 12.9368H48.6719V12.9382C48.6473 12.9484 48.6227 12.9587 48.5975 12.9682H48.5763V12.9764C48.5558 12.9846 48.5353 12.9921 48.5148 13.0003H48.5128V13.001C48.4841 13.0113 48.4561 13.0222 48.4274 13.0318H48.4172V13.0352C48.3892 13.0454 48.3612 13.0543 48.3332 13.0638H48.3216V13.0679C48.2916 13.0775 48.2615 13.0871 48.2315 13.0959H48.2267V13.0973C48.1912 13.1075 48.1557 13.1178 48.1202 13.1273H48.0997V13.1328C48.0649 13.1417 48.0307 13.1506 47.9959 13.1594H47.972V13.1649C47.9317 13.1745 47.8921 13.1833 47.8518 13.1915H47.8129V13.199C47.69 13.2229 47.5664 13.2414 47.4421 13.255H47.3677V13.2625C47.0201 13.294 46.6671 13.2837 46.3175 13.2298V13.2236H46.2759C46.226 13.2154 46.1762 13.2066 46.1263 13.1963V13.1915H46.1038C46.058 13.182 46.0123 13.1724 45.9672 13.1615V13.1601H45.9611C45.9208 13.1506 45.8805 13.1403 45.8402 13.1294V13.128H45.8368C45.8061 13.1198 45.7753 13.111 45.7446 13.1021V13.0966H45.7262C45.7009 13.0891 45.675 13.0809 45.649 13.0727V13.0652H45.6244C45.6005 13.0577 45.5773 13.0495 45.5534 13.0413V13.0338H45.5309C45.5063 13.0249 45.4817 13.016 45.4578 13.0072V13.0024H45.4442C45.4169 12.9921 45.3895 12.9812 45.3622 12.971C45.266 12.9327 45.1704 12.8904 45.0761 12.8447V12.844H45.0748C45.0543 12.8337 45.0331 12.8235 45.0126 12.8126V12.8119H45.0113C44.9402 12.7757 44.8692 12.7375 44.7989 12.6972C44.7743 12.6828 44.7504 12.6685 44.7265 12.6541V12.6528H44.7245C44.6931 12.6337 44.6617 12.6145 44.6309 12.5947V12.5893H44.6221C44.5148 12.521 44.4117 12.4479 44.3127 12.3715V12.3667H44.3066C44.2547 12.3264 44.2035 12.2854 44.1536 12.2431V12.239H44.1495C43.9652 12.0826 43.7972 11.9126 43.6442 11.7323V11.7296H43.6422C43.5644 11.6374 43.4906 11.5425 43.4216 11.4442V11.4428H43.4203C43.3991 11.4128 43.3779 11.382 43.3575 11.352V11.3479H43.3547C43.3342 11.3172 43.3138 11.2858 43.294 11.2544V11.2523H43.2926C43.2598 11.2011 43.2284 11.1492 43.1984 11.0966V11.0932H43.1963C43.1144 10.9505 43.0406 10.803 42.9751 10.6528V10.648H42.973C42.8645 10.396 42.7805 10.1352 42.7204 9.8689V9.85251H42.7163C42.6917 9.74189 42.6719 9.63059 42.6562 9.51861V9.5029H42.6541C42.6173 9.22977 42.6057 8.95254 42.6207 8.67531H42.6248V8.61523C42.6309 8.51827 42.6412 8.42199 42.6541 8.32503H42.6562V8.31069C42.6644 8.25196 42.6739 8.19324 42.6849 8.13383H42.6883V8.1154C42.7129 7.98293 42.7443 7.85114 42.7818 7.72004H42.7839V7.71253C42.8201 7.58689 42.8624 7.46193 42.9102 7.33834H42.9116V7.33493C42.9655 7.19631 43.0277 7.05906 43.0966 6.92455H43.1028V6.91362C43.1116 6.89587 43.1212 6.87812 43.1308 6.86105H43.1349V6.85353C43.1451 6.83441 43.1553 6.81598 43.1656 6.79754H43.1669V6.79549C43.1786 6.77501 43.1895 6.75521 43.2011 6.73472C43.2202 6.70195 43.2393 6.67054 43.2584 6.63844H43.2625V6.6323C43.3499 6.48959 43.4449 6.35439 43.5459 6.22533H43.5493V6.22123C43.591 6.16797 43.6333 6.11676 43.677 6.06623C43.815 5.90577 43.9638 5.75691 44.1209 5.62103H44.1229V5.61966C44.2547 5.50563 44.3926 5.3998 44.5353 5.30283H44.5367V5.30215C44.6193 5.24616 44.7033 5.19358 44.7893 5.14373H44.7914V5.14237C44.8091 5.13213 44.8276 5.12188 44.846 5.11164H44.8549V5.10686C44.9771 5.03858 45.1021 4.97644 45.2298 4.92113H45.2366V4.9184C45.4824 4.8112 45.7378 4.72721 45.9986 4.66644H46.0007V4.66576C46.0492 4.65483 46.0983 4.64391 46.1468 4.63435H46.1598V4.63161C46.2165 4.62069 46.2738 4.61113 46.3312 4.60225H46.3503V4.59952C46.4309 4.58791 46.5121 4.57835 46.5934 4.57084H46.605V4.56948C46.8474 4.54831 47.0925 4.54694 47.337 4.56675V4.57016H47.3779C47.4599 4.57767 47.5418 4.58723 47.6231 4.59952V4.60225H47.6415C47.6989 4.61113 47.7569 4.62137 47.8143 4.6323V4.63435H47.8245C47.9495 4.65893 48.0731 4.68897 48.1966 4.72448V4.72926H48.2137C48.3366 4.76545 48.4582 4.8071 48.579 4.85422V4.85626H48.5838C48.6787 4.89382 48.7723 4.93479 48.8651 4.97917V4.98395H48.8754C48.8931 4.99283 48.9109 5.00171 48.9293 5.01058V5.01536H48.9396C48.9573 5.02424 48.9751 5.03312 48.9928 5.04268V5.04746H49.0017C49.0201 5.05702 49.0386 5.06658 49.0563 5.07682V5.07955H49.0618C49.0966 5.09867 49.1314 5.11779 49.1656 5.13759C49.2038 5.15944 49.2414 5.18266 49.2796 5.20587V5.20724H49.2817C49.3131 5.22636 49.3438 5.24616 49.3752 5.26664V5.27074H49.3814C49.4114 5.29054 49.4408 5.31035 49.4701 5.33083V5.33493H49.4756C49.5616 5.39433 49.6449 5.45647 49.7248 5.52134V5.52612H49.731C49.7945 5.57733 49.8559 5.63059 49.916 5.68453V5.68522H49.9167C49.9269 5.69478 49.9379 5.70434 49.9481 5.71389V5.71731H49.9522C49.9618 5.72619 49.9713 5.73506 49.9802 5.74394V5.7494H49.9857C49.9945 5.7576 50.0034 5.76579 50.0116 5.77398V5.7815H50.0191C50.0273 5.78969 50.0355 5.79788 50.0437 5.80539V5.81359H50.0519C50.0929 5.85387 50.1325 5.89416 50.1714 5.93581V5.94059H50.1762C50.185 5.95084 50.1946 5.9604 50.2035 5.96995V5.97269H50.2062C50.2602 6.03209 50.3127 6.09218 50.3633 6.15364V6.1632H50.3715C50.3796 6.17344 50.3872 6.183 50.3954 6.19324V6.19529H50.3967C50.4752 6.29293 50.549 6.39399 50.618 6.49778V6.51348H50.6282C50.6466 6.5408 50.6644 6.56879 50.6815 6.59679V6.60908H50.689C50.7081 6.63981 50.7265 6.67053 50.745 6.70126V6.70399H50.747C50.816 6.82076 50.8788 6.94094 50.9361 7.06316V7.08569H50.9464C50.9532 7.1014 50.9607 7.1171 50.9676 7.13281V7.14988H50.9751C50.9833 7.16832 50.9915 7.18744 50.9997 7.20587V7.21338H51.0024C51.0352 7.29122 51.0666 7.37043 51.0946 7.45032V7.46808H51.1007C51.1096 7.49266 51.1185 7.51792 51.126 7.5425V7.56367H51.1328C51.1417 7.5903 51.1499 7.61693 51.1581 7.64288V7.65927H51.1629C51.1717 7.69 51.1813 7.72141 51.1895 7.75213V7.75487H51.1902C51.2134 7.83954 51.2345 7.92557 51.253 8.01229V8.04165H51.2591C51.2687 8.08672 51.2769 8.13247 51.2851 8.17754V8.20075H51.2892C51.326 8.41857 51.3458 8.63912 51.3486 8.86104V8.98532C51.3486 8.99897 51.3486 9.01332 51.3479 9.02697L52.4466 9.66132L54.5374 10.8686L56.6282 12.0751L58.7183 13.2817L60.0068 14.0253L60.8091 14.4882L62.8993 15.6948L60.8091 16.9027L58.7183 18.1093L58.7013 18.099L56.6282 16.902L54.5374 15.6941L54.181 15.4886L52.4466 14.4875L50.3571 13.281L49.2578 12.646L49.255 12.6405Z" fill="url(#paint0_linear_128_5103)"/>
<path d="M85.1051 32.4074C85.1051 33.5564 85.0001 34.549 84.7891 35.3851C84.578 36.2212 83.9413 36.9217 82.8781 37.4858C82.6172 37.6268 82.236 37.6978 81.7342 37.6978C81.1727 37.6978 80.7416 37.6268 80.44 37.4858C79.3767 36.9217 78.7391 36.2212 78.529 35.3851C78.3189 34.549 78.2229 33.5564 78.2428 32.4074C78.2428 32.1654 78.2428 32.2309 78.2428 32.6039C78.2428 32.9769 78.2428 32.5584 78.2428 31.3493H80.7108C80.7108 32.0553 80.7054 32.4274 80.6954 32.4683C80.6854 32.5084 80.68 32.4838 80.68 32.3928C80.68 32.3018 80.68 32.2718 80.68 32.3018C80.68 32.3319 80.68 32.6794 80.68 33.3445C80.68 33.7675 80.7153 34.166 80.786 34.539C80.8566 34.912 81.1519 35.1085 81.6735 35.1286C82.1554 35.0685 82.4361 34.862 82.5167 34.509C82.5973 34.1569 82.6372 33.7684 82.6372 33.3454C82.6372 32.0753 82.6372 30.8007 82.6372 29.5206C82.6372 28.2406 82.6372 26.9559 82.6372 25.6658H78.2428C78.2428 24.2748 78.2428 22.8946 78.2428 21.5236C78.2428 20.1534 78.2428 18.7724 78.2428 17.3822C78.2229 16.2332 78.318 15.246 78.529 14.4199C78.74 13.5939 79.3767 12.8879 80.44 12.3038C80.7208 12.1628 81.112 12.0918 81.6138 12.0918C82.1354 12.0918 82.5566 12.1628 82.8781 12.3038C83.9214 12.8679 84.5536 13.5629 84.7737 14.3899C84.9947 15.216 85.1042 16.204 85.1042 17.3531H82.6363V16.325C82.6363 15.922 82.6009 15.5344 82.5312 15.1614C82.4606 14.7884 82.1753 14.5819 81.6735 14.5419C81.1718 14.6028 80.8811 14.8139 80.8014 15.1769C80.7208 15.5399 80.6809 15.9229 80.6809 16.326C80.6809 17.5151 80.6809 18.6941 80.6809 19.8632C80.6809 21.0323 80.6809 22.1914 80.6809 23.3404H85.0753C85.0753 24.8516 85.0807 26.3636 85.0907 27.8748C85.1006 29.386 85.1061 30.898 85.1061 32.4092L85.1051 32.4074ZM93.9228 14.54C93.4211 14.601 93.1358 14.8121 93.0652 15.1751C92.9945 15.5381 92.9592 15.9211 92.9592 16.3241V33.3745C92.9592 33.7975 92.9945 34.186 93.0652 34.539C93.1358 34.8911 93.4211 35.0985 93.9228 35.1586C94.4246 35.1386 94.7153 34.9421 94.7959 34.569C94.8765 34.196 94.9164 33.7984 94.9164 33.3745V16.3241C94.9164 15.9211 94.8765 15.5335 94.7959 15.1605C94.7153 14.7875 94.4246 14.581 93.9228 14.541V14.54ZM97.3843 17.3822V32.4074C97.3843 33.5564 97.2738 34.549 97.0528 35.3851C96.8319 36.2212 96.2006 36.9217 95.1573 37.4858C94.8358 37.6268 94.4046 37.6978 93.8631 37.6978C93.3414 37.6978 92.9601 37.6268 92.7192 37.4858C91.636 36.9217 90.9939 36.2212 90.7928 35.3851C90.5926 34.549 90.4921 33.5564 90.4921 32.4074V17.3822C90.4921 16.2332 90.5926 15.246 90.7928 14.4199C90.9939 13.5939 91.636 12.8879 92.7192 12.3038C92.9601 12.1628 93.3414 12.0918 93.8631 12.0918C94.4046 12.0918 94.8358 12.1628 95.1573 12.3038C96.2006 12.8879 96.8328 13.5939 97.0528 14.4199C97.2738 15.246 97.3843 16.2341 97.3843 17.3822ZM102.801 37.3957C102.781 35.1176 102.771 32.8404 102.771 30.5632C102.771 28.2851 102.771 25.9979 102.771 23.7007C102.771 22.7336 102.771 21.761 102.771 20.7839C102.771 19.8059 102.771 18.7933 102.771 17.7452C102.771 16.7581 102.872 15.7146 103.072 14.6165C103.272 13.5183 103.904 12.8478 104.968 12.6067C105.57 12.4248 106.327 12.3493 107.24 12.3802C108.153 12.4102 108.941 12.4257 109.603 12.4257C109.603 12.9697 109.603 13.3528 109.603 13.5748C109.603 13.7958 109.603 14.1798 109.603 14.7238H106.684C105.941 14.7238 105.51 14.9504 105.39 15.4043C105.269 15.8574 105.208 16.3159 105.208 16.7799C105.208 17.868 105.214 18.9571 105.224 20.0452C105.234 21.1333 105.239 22.2223 105.239 23.3104H107.225V25.6686C106.784 25.6886 106.448 25.6986 106.217 25.6986C105.986 25.6986 105.66 25.6986 105.239 25.6986V26.0006C105.199 29.8299 105.199 33.6292 105.239 37.3985H102.801V37.3957ZM117.126 37.3957C117.106 33.7675 117.086 29.9992 117.066 26.0889C117.046 22.1786 117.036 18.4003 117.036 14.752C116.775 14.732 116.404 14.732 115.923 14.752C115.441 14.772 115.079 14.772 114.839 14.752C114.839 14.2689 114.839 13.8804 114.839 13.5884C114.839 13.2964 114.839 12.9079 114.839 12.4239C115.863 12.4239 117.031 12.4239 118.345 12.4239C119.659 12.4239 120.828 12.4239 121.851 12.4239C121.851 12.9079 121.851 13.2955 121.851 13.5884C121.851 13.8804 121.851 14.2689 121.851 14.752C121.551 14.752 121.159 14.752 120.677 14.752C120.197 14.752 119.825 14.752 119.563 14.752C119.563 18.4203 119.563 22.1986 119.563 26.0889C119.563 29.9791 119.563 33.7475 119.563 37.3957C119.083 37.3957 118.67 37.3957 118.33 37.3957C117.989 37.3957 117.587 37.3957 117.126 37.3957ZM127.268 12.4239H129.796V37.3957H127.268V12.4239ZM137.53 37.3957C137.51 33.7675 137.49 29.9992 137.47 26.0889C137.45 22.1786 137.44 18.4003 137.44 14.752C137.179 14.732 136.808 14.732 136.327 14.752C135.845 14.772 135.483 14.772 135.243 14.752C135.243 14.2689 135.243 13.8804 135.243 13.5884C135.243 13.2964 135.243 12.9079 135.243 12.4239C136.267 12.4239 137.435 12.4239 138.749 12.4239C140.064 12.4239 141.232 12.4239 142.255 12.4239C142.255 12.9079 142.255 13.2955 142.255 13.5884C142.255 13.8804 142.255 14.2689 142.255 14.752C141.955 14.752 141.563 14.752 141.081 14.752C140.601 14.752 140.229 14.752 139.968 14.752C139.968 18.4203 139.968 22.1986 139.968 26.0889C139.968 29.9791 139.968 33.7475 139.968 37.3957C139.487 37.3957 139.075 37.3957 138.734 37.3957C138.393 37.3957 137.991 37.3957 137.53 37.3957Z" fill="white"/>
<path d="M79.6911 50.7286H79.0054V46.5598H79.6911V50.7286ZM79.7453 45.454C79.7453 45.5696 79.713 45.6659 79.6485 45.7429C79.5839 45.82 79.4858 45.8585 79.354 45.8585C79.2249 45.8585 79.1281 45.82 79.0635 45.7429C78.9989 45.6659 78.9667 45.5696 78.9667 45.454C78.9667 45.3384 78.9989 45.2408 79.0635 45.1612C79.1281 45.0815 79.2249 45.0417 79.354 45.0417C79.4832 45.0417 79.58 45.0828 79.6446 45.165C79.7117 45.2446 79.7453 45.341 79.7453 45.454Z" fill="white"/>
<path d="M81.5774 46.5598L81.5968 47.0106C81.8628 46.6587 82.2024 46.4827 82.6156 46.4827C83.3568 46.4827 83.7326 46.9746 83.7429 47.9584V50.7286H83.0611V47.9892C83.0611 47.663 83.0056 47.4318 82.8945 47.2957C82.7861 47.157 82.6221 47.0876 82.4026 47.0876C82.2321 47.0876 82.0785 47.1441 81.9416 47.2571C81.8073 47.3702 81.6988 47.5179 81.6162 47.7002V50.7286H80.9305V46.5598H81.5774Z" fill="white"/>
<path d="M85.5789 46.5598L85.5983 47.0106C85.8643 46.6587 86.2039 46.4827 86.6171 46.4827C87.3583 46.4827 87.734 46.9746 87.7444 47.9584V50.7286H87.0626V47.9892C87.0626 47.663 87.0071 47.4318 86.896 47.2957C86.7875 47.157 86.6236 47.0876 86.404 47.0876C86.2336 47.0876 86.0799 47.1441 85.9431 47.2571C85.8088 47.3702 85.7003 47.5179 85.6177 47.7002V50.7286H84.932V46.5598H85.5789Z" fill="white"/>
<path d="M88.7901 48.4515C88.7901 47.8454 88.9373 47.3663 89.2318 47.0144C89.5287 46.6599 89.92 46.4827 90.4055 46.4827C90.891 46.4827 91.281 46.6548 91.5754 46.999C91.8724 47.3432 92.0248 47.812 92.0325 48.4053V48.8445C92.0325 49.4482 91.8853 49.9259 91.5909 50.2778C91.2965 50.6297 90.9039 50.8057 90.4133 50.8057C89.9277 50.8057 89.5378 50.6349 89.2434 50.2932C88.9515 49.9516 88.8005 49.4893 88.7901 48.9062V48.4515ZM89.4758 48.8445C89.4758 49.2735 89.5597 49.6113 89.7276 49.8578C89.898 50.1019 90.1266 50.2239 90.4133 50.2239C91.0176 50.2239 91.3288 49.7898 91.3468 48.9216V48.4515C91.3468 48.0252 91.2616 47.6887 91.0912 47.4421C90.9207 47.1929 90.6922 47.0683 90.4055 47.0683C90.124 47.0683 89.898 47.1929 89.7276 47.4421C89.5597 47.6887 89.4758 48.0239 89.4758 48.4477V48.8445Z" fill="white"/>
<path d="M94.2017 49.6922L94.9958 46.5598H95.6931L94.4496 50.7286H93.9383L92.6793 46.5598H93.3766L94.2017 49.6922Z" fill="white"/>
<path d="M98.6602 50.7286C98.6189 50.6387 98.5892 50.4872 98.5712 50.274C98.3284 50.6284 98.0185 50.8057 97.6414 50.8057C97.2618 50.8057 96.9648 50.7004 96.7505 50.4897C96.5387 50.2765 96.4328 49.9773 96.4328 49.592C96.4328 49.1682 96.5774 48.8317 96.8667 48.5825C97.1559 48.3334 97.5523 48.2062 98.0559 48.2011H98.5595V47.758C98.5595 47.5089 98.504 47.3316 98.393 47.2263C98.2819 47.121 98.1128 47.0683 97.8855 47.0683C97.6789 47.0683 97.511 47.13 97.3819 47.2533C97.2528 47.374 97.1882 47.5281 97.1882 47.7156H96.5025C96.5025 47.5024 96.5658 47.2995 96.6924 47.1069C96.8189 46.9117 96.9894 46.7588 97.2037 46.6484C97.4181 46.5379 97.6569 46.4827 97.9204 46.4827C98.3491 46.4827 98.6745 46.5893 98.8966 46.8025C99.1212 47.0131 99.2362 47.3214 99.2413 47.7272V49.8309C99.2439 50.152 99.2878 50.4306 99.373 50.667V50.7286H98.6602ZM97.746 50.1853C97.9139 50.1853 98.074 50.1391 98.2264 50.0466C98.3788 49.9542 98.4898 49.8386 98.5595 49.6999V48.7058H98.1722C97.8468 48.711 97.5898 48.7842 97.4013 48.9254C97.2127 49.0642 97.1185 49.2594 97.1185 49.5111C97.1185 49.7474 97.1663 49.9195 97.2618 50.0274C97.3574 50.1327 97.5188 50.1853 97.746 50.1853Z" fill="white"/>
<path d="M101.364 45.5503V46.5598H101.995V47.1107H101.364V49.696C101.364 49.8604 101.391 49.985 101.445 50.0698C101.5 50.1545 101.593 50.1969 101.724 50.1969C101.815 50.1969 101.906 50.1815 101.999 50.1507L101.992 50.7286C101.837 50.78 101.678 50.8057 101.515 50.8057C101.244 50.8057 101.037 50.7093 100.895 50.5167C100.753 50.3241 100.682 50.0518 100.682 49.6999V47.1107H100.043V46.5598H100.682V45.5503H101.364Z" fill="white"/>
<path d="M105.009 49.6614C105.009 49.5149 104.954 49.3891 104.843 49.2838C104.731 49.1785 104.517 49.0552 104.199 48.9139C103.83 48.7623 103.569 48.6326 103.417 48.5247C103.267 48.4169 103.155 48.2949 103.08 48.1587C103.005 48.02 102.968 47.8556 102.968 47.6655C102.968 47.3265 103.092 47.0452 103.339 46.8218C103.59 46.5957 103.909 46.4827 104.296 46.4827C104.704 46.4827 105.032 46.6009 105.28 46.8372C105.528 47.0735 105.652 47.3766 105.652 47.7465H104.97C104.97 47.559 104.907 47.3997 104.781 47.2687C104.654 47.1351 104.493 47.0683 104.296 47.0683C104.095 47.0683 103.936 47.121 103.82 47.2263C103.706 47.3291 103.649 47.4678 103.649 47.6424C103.649 47.7811 103.691 47.8929 103.773 47.9776C103.859 48.0624 104.061 48.1741 104.382 48.3128C104.89 48.5106 105.236 48.7045 105.42 48.8946C105.603 49.0821 105.695 49.321 105.695 49.6113C105.695 49.9734 105.569 50.2637 105.319 50.482C105.068 50.6978 104.733 50.8057 104.312 50.8057C103.875 50.8057 103.522 50.6811 103.25 50.4319C102.979 50.1828 102.844 49.8668 102.844 49.4841H103.533C103.541 49.7153 103.612 49.8964 103.746 50.0274C103.881 50.1584 104.069 50.2239 104.312 50.2239C104.539 50.2239 104.712 50.1738 104.831 50.0736C104.95 49.9709 105.009 49.8334 105.009 49.6614Z" fill="white"/>
<path d="M107.488 50.7286H106.802V46.5598H107.488V50.7286ZM107.542 45.454C107.542 45.5696 107.51 45.6659 107.446 45.7429C107.381 45.82 107.283 45.8585 107.151 45.8585C107.022 45.8585 106.925 45.82 106.861 45.7429C106.796 45.6659 106.764 45.5696 106.764 45.454C106.764 45.3384 106.796 45.2408 106.861 45.1612C106.925 45.0815 107.022 45.0417 107.151 45.0417C107.28 45.0417 107.377 45.0828 107.442 45.165C107.509 45.2446 107.542 45.341 107.542 45.454Z" fill="white"/>
<path d="M109.874 49.5959L110.637 46.5598H111.366L109.994 51.3181C109.891 51.6751 109.745 51.9461 109.557 52.1311C109.368 52.3186 109.154 52.4123 108.914 52.4123C108.821 52.4123 108.702 52.3918 108.557 52.3507V51.7727L108.708 51.7882C108.907 51.7882 109.062 51.7406 109.173 51.6456C109.287 51.5531 109.378 51.3913 109.448 51.1601L109.584 50.6939L108.352 46.5598H109.099L109.874 49.5959Z" fill="white"/>
<path d="M114.29 50.7286C114.249 50.6387 114.219 50.4872 114.201 50.274C113.958 50.6284 113.648 50.8057 113.271 50.8057C112.892 50.8057 112.595 50.7004 112.38 50.4897C112.169 50.2765 112.063 49.9773 112.063 49.592C112.063 49.1682 112.207 48.8317 112.497 48.5825C112.786 48.3334 113.182 48.2062 113.686 48.2011H114.19V47.758C114.19 47.5089 114.134 47.3316 114.023 47.2263C113.912 47.121 113.743 47.0683 113.515 47.0683C113.309 47.0683 113.141 47.13 113.012 47.2533C112.883 47.374 112.818 47.5281 112.818 47.7156H112.133C112.133 47.5024 112.196 47.2995 112.322 47.1069C112.449 46.9117 112.619 46.7588 112.834 46.6484C113.048 46.5379 113.287 46.4827 113.55 46.4827C113.979 46.4827 114.304 46.5893 114.527 46.8025C114.751 47.0131 114.866 47.3214 114.871 47.7272V49.8309C114.874 50.152 114.918 50.4306 115.003 50.667V50.7286H114.29ZM113.376 50.1853C113.544 50.1853 113.704 50.1391 113.856 50.0466C114.009 49.9542 114.12 49.8386 114.19 49.6999V48.7058H113.802C113.477 48.711 113.22 48.7842 113.031 48.9254C112.843 49.0642 112.748 49.2594 112.748 49.5111C112.748 49.7474 112.796 49.9195 112.892 50.0274C112.987 50.1327 113.149 50.1853 113.376 50.1853Z" fill="white"/>
<path d="M119.264 49.6922L120.058 46.5598H120.755L119.512 50.7286H119L117.741 46.5598H118.439L119.264 49.6922Z" fill="white"/>
<path d="M123.722 50.7286C123.681 50.6387 123.651 50.4872 123.633 50.274C123.391 50.6284 123.081 50.8057 122.704 50.8057C122.324 50.8057 122.027 50.7004 121.813 50.4897C121.601 50.2765 121.495 49.9773 121.495 49.592C121.495 49.1682 121.64 48.8317 121.929 48.5825C122.218 48.3334 122.615 48.2062 123.118 48.2011H123.622V47.758C123.622 47.5089 123.566 47.3316 123.455 47.2263C123.344 47.121 123.175 47.0683 122.948 47.0683C122.741 47.0683 122.573 47.13 122.444 47.2533C122.315 47.374 122.25 47.5281 122.25 47.7156H121.565C121.565 47.5024 121.628 47.2995 121.755 47.1069C121.881 46.9117 122.052 46.7588 122.266 46.6484C122.48 46.5379 122.719 46.4827 122.983 46.4827C123.411 46.4827 123.737 46.5893 123.959 46.8025C124.183 47.0131 124.298 47.3214 124.304 47.7272V49.8309C124.306 50.152 124.35 50.4306 124.435 50.667V50.7286H123.722ZM122.808 50.1853C122.976 50.1853 123.136 50.1391 123.289 50.0466C123.441 49.9542 123.552 49.8386 123.622 49.6999V48.7058H123.234C122.909 48.711 122.652 48.7842 122.463 48.9254C122.275 49.0642 122.181 49.2594 122.181 49.5111C122.181 49.7474 122.228 49.9195 122.324 50.0274C122.42 50.1327 122.581 50.1853 122.808 50.1853Z" fill="white"/>
<path d="M128.406 45.5503V46.5598H129.037V47.1107H128.406V49.696C128.406 49.8604 128.433 49.985 128.487 50.0698C128.541 50.1545 128.634 50.1969 128.766 50.1969C128.856 50.1969 128.948 50.1815 129.041 50.1507L129.033 50.7286C128.878 50.78 128.719 50.8057 128.557 50.8057C128.285 50.8057 128.079 50.7093 127.937 50.5167C127.795 50.3241 127.724 50.0518 127.724 49.6999V47.1107H127.085V46.5598H127.724V45.5503H128.406Z" fill="white"/>
<path d="M131.512 50.8057C130.99 50.8057 130.59 50.6515 130.311 50.3433C130.032 50.0325 129.89 49.5779 129.885 48.9794V48.4747C129.885 47.8531 130.021 47.3663 130.292 47.0144C130.566 46.6599 130.947 46.4827 131.435 46.4827C131.925 46.4827 132.292 46.6381 132.535 46.9489C132.778 47.2597 132.902 47.7439 132.907 48.4015V48.8484H130.567V48.9447C130.567 49.3916 130.651 49.7166 130.819 49.9195C130.989 50.1224 131.233 50.2239 131.551 50.2239C131.752 50.2239 131.929 50.1866 132.082 50.1121C132.237 50.0351 132.381 49.9144 132.515 49.75L132.872 50.1815C132.575 50.5976 132.122 50.8057 131.512 50.8057ZM131.435 47.0683C131.151 47.0683 130.94 47.166 130.803 47.3612C130.666 47.5538 130.589 47.8543 130.571 48.2627H132.221V48.1703C132.203 47.7747 132.131 47.4922 132.004 47.3226C131.88 47.1531 131.69 47.0683 131.435 47.0683Z" fill="white"/>
<path d="M135.103 48.0817L135.82 46.5598H136.614L135.475 48.6211L136.641 50.7286H135.855L135.115 49.1682L134.371 50.7286H133.581L134.747 48.6211L133.612 46.5598H134.398L135.103 48.0817Z" fill="white"/>
<path d="M138.183 46.5598L138.202 47.0106C138.468 46.6587 138.808 46.4827 139.221 46.4827C139.962 46.4827 140.338 46.9746 140.348 47.9584V50.7286H139.666V47.9892C139.666 47.663 139.611 47.4318 139.5 47.2957C139.391 47.157 139.227 47.0876 139.008 47.0876C138.837 47.0876 138.684 47.1441 138.547 47.2571C138.412 47.3702 138.304 47.5179 138.221 47.7002V50.7286H137.536V46.5598H138.183Z" fill="white"/>
<path d="M141.394 48.4515C141.394 47.8454 141.541 47.3663 141.835 47.0144C142.132 46.6599 142.524 46.4827 143.009 46.4827C143.495 46.4827 143.885 46.6548 144.179 46.999C144.476 47.3432 144.628 47.812 144.636 48.4053V48.8445C144.636 49.4482 144.489 49.9259 144.195 50.2778C143.9 50.6297 143.508 50.8057 143.017 50.8057C142.531 50.8057 142.141 50.6349 141.847 50.2932C141.555 49.9516 141.404 49.4893 141.394 48.9062V48.4515ZM142.079 48.8445C142.079 49.2735 142.163 49.6113 142.331 49.8578C142.502 50.1019 142.73 50.2239 143.017 50.2239C143.621 50.2239 143.932 49.7898 143.95 48.9216V48.4515C143.95 48.0252 143.865 47.6887 143.695 47.4421C143.524 47.1929 143.296 47.0683 143.009 47.0683C142.728 47.0683 142.502 47.1929 142.331 47.4421C142.163 47.6887 142.079 48.0239 142.079 48.4477V48.8445Z" fill="white"/>
<path d="M146.418 50.7286H145.732V44.8105H146.418V50.7286Z" fill="white"/>
<path d="M147.514 48.4515C147.514 47.8454 147.661 47.3663 147.956 47.0144C148.253 46.6599 148.644 46.4827 149.129 46.4827C149.615 46.4827 150.005 46.6548 150.299 46.999C150.596 47.3432 150.749 47.812 150.756 48.4053V48.8445C150.756 49.4482 150.609 49.9259 150.315 50.2778C150.02 50.6297 149.628 50.8057 149.137 50.8057C148.652 50.8057 148.262 50.6349 147.967 50.2932C147.675 49.9516 147.524 49.4893 147.514 48.9062V48.4515ZM148.2 48.8445C148.2 49.2735 148.284 49.6113 148.451 49.8578C148.622 50.1019 148.85 50.2239 149.137 50.2239C149.741 50.2239 150.053 49.7898 150.071 48.9216V48.4515C150.071 48.0252 149.986 47.6887 149.815 47.4421C149.645 47.1929 149.416 47.0683 149.129 47.0683C148.848 47.0683 148.622 47.1929 148.451 47.4421C148.284 47.6887 148.2 48.0239 148.2 48.4477V48.8445Z" fill="white"/>
<path d="M151.663 48.4554C151.663 47.8055 151.782 47.3149 152.019 46.9836C152.257 46.6497 152.604 46.4827 153.061 46.4827C153.487 46.4827 153.811 46.6638 154.033 47.026L154.068 46.5598H154.688V50.7671C154.688 51.2834 154.555 51.679 154.289 51.9538C154.023 52.2312 153.653 52.3699 153.177 52.3699C152.971 52.3699 152.738 52.3186 152.48 52.2158C152.224 52.1157 152.032 51.9911 151.903 51.8421L152.182 51.372C152.466 51.6494 152.78 51.7882 153.123 51.7882C153.694 51.7882 153.987 51.4786 154.002 50.8596V50.3163C153.78 50.6426 153.465 50.8057 153.057 50.8057C152.623 50.8057 152.285 50.6438 152.042 50.3202C151.8 49.994 151.673 49.5265 151.663 48.9177V48.4554ZM152.348 48.8445C152.348 49.312 152.417 49.6562 152.554 49.8771C152.693 50.0954 152.92 50.2046 153.235 50.2046C153.576 50.2046 153.832 50.0312 154.002 49.6845V47.6C153.824 47.2584 153.571 47.0876 153.243 47.0876C152.928 47.0876 152.701 47.1981 152.561 47.419C152.422 47.6373 152.351 47.9738 152.348 48.4284V48.8445Z" fill="white"/>
<path d="M156.609 50.7286H155.924V46.5598H156.609V50.7286ZM156.664 45.454C156.664 45.5696 156.631 45.6659 156.567 45.7429C156.502 45.82 156.404 45.8585 156.272 45.8585C156.143 45.8585 156.046 45.82 155.982 45.7429C155.917 45.6659 155.885 45.5696 155.885 45.454C155.885 45.3384 155.917 45.2408 155.982 45.1612C156.046 45.0815 156.143 45.0417 156.272 45.0417C156.401 45.0417 156.498 45.0828 156.563 45.165C156.63 45.2446 156.664 45.341 156.664 45.454Z" fill="white"/>
<path d="M158.995 49.5959L159.759 46.5598H160.487L159.116 51.3181C159.012 51.6751 158.866 51.9461 158.678 52.1311C158.489 52.3186 158.275 52.4123 158.035 52.4123C157.942 52.4123 157.823 52.3918 157.678 52.3507V51.7727L157.829 51.7882C158.028 51.7882 158.183 51.7406 158.294 51.6456C158.408 51.5531 158.5 51.3913 158.569 51.1601L158.705 50.6939L157.473 46.5598H158.221L158.995 49.5959Z" fill="white"/>
<path d="M163.411 50.7286C163.37 50.6387 163.34 50.4872 163.322 50.274C163.08 50.6284 162.77 50.8057 162.393 50.8057C162.013 50.8057 161.716 50.7004 161.502 50.4897C161.29 50.2765 161.184 49.9773 161.184 49.592C161.184 49.1682 161.329 48.8317 161.618 48.5825C161.907 48.3334 162.304 48.2062 162.807 48.2011H163.311V47.758C163.311 47.5089 163.255 47.3316 163.144 47.2263C163.033 47.121 162.864 47.0683 162.637 47.0683C162.43 47.0683 162.262 47.13 162.133 47.2533C162.004 47.374 161.939 47.5281 161.939 47.7156H161.254C161.254 47.5024 161.317 47.2995 161.444 47.1069C161.57 46.9117 161.741 46.7588 161.955 46.6484C162.169 46.5379 162.408 46.4827 162.672 46.4827C163.1 46.4827 163.426 46.5893 163.648 46.8025C163.872 47.0131 163.987 47.3214 163.993 47.7272V49.8309C163.995 50.152 164.039 50.4306 164.124 50.667V50.7286H163.411ZM162.497 50.1853C162.665 50.1853 162.825 50.1391 162.978 50.0466C163.13 49.9542 163.241 49.8386 163.311 49.6999V48.7058H162.923C162.598 48.711 162.341 48.7842 162.152 48.9254C161.964 49.0642 161.87 49.2594 161.87 49.5111C161.87 49.7474 161.917 49.9195 162.013 50.0274C162.109 50.1327 162.27 50.1853 162.497 50.1853Z" fill="white"/>
<path d="M165.956 50.7286H165.271V44.8105H165.956V50.7286Z" fill="white"/>
<path d="M169.354 50.7286C169.312 50.6387 169.283 50.4872 169.264 50.274C169.022 50.6284 168.712 50.8057 168.335 50.8057C167.955 50.8057 167.658 50.7004 167.444 50.4897C167.232 50.2765 167.126 49.9773 167.126 49.592C167.126 49.1682 167.271 48.8317 167.56 48.5825C167.849 48.3334 168.246 48.2062 168.749 48.2011H169.253V47.758C169.253 47.5089 169.197 47.3316 169.086 47.2263C168.975 47.121 168.806 47.0683 168.579 47.0683C168.372 47.0683 168.204 47.13 168.075 47.2533C167.946 47.374 167.882 47.5281 167.882 47.7156H167.196C167.196 47.5024 167.259 47.2995 167.386 47.1069C167.512 46.9117 167.683 46.7588 167.897 46.6484C168.111 46.5379 168.35 46.4827 168.614 46.4827C169.042 46.4827 169.368 46.5893 169.59 46.8025C169.815 47.0131 169.929 47.3214 169.935 47.7272V49.8309C169.937 50.152 169.981 50.4306 170.066 50.667V50.7286H169.354ZM168.439 50.1853C168.607 50.1853 168.767 50.1391 168.92 50.0466C169.072 49.9542 169.183 49.8386 169.253 49.6999V48.7058H168.865C168.54 48.711 168.283 48.7842 168.095 48.9254C167.906 49.0642 167.812 49.2594 167.812 49.5111C167.812 49.7474 167.86 49.9195 167.955 50.0274C168.051 50.1327 168.212 50.1853 168.439 50.1853Z" fill="white"/>
<path d="M172.89 47.1993C172.795 47.1814 172.691 47.1724 172.58 47.1724C172.229 47.1724 171.984 47.3637 171.844 47.7465V50.7286H171.159V46.5598H171.825L171.836 46.9836C172.02 46.6497 172.279 46.4827 172.615 46.4827C172.724 46.4827 172.814 46.5007 172.886 46.5366L172.89 47.1993Z" fill="white"/>
<path d="M174.381 46.5598L174.401 47.0106C174.667 46.6587 175.006 46.4827 175.42 46.4827C176.161 46.4827 176.537 46.9746 176.547 47.9584V50.7286H175.865V47.9892C175.865 47.663 175.81 47.4318 175.699 47.2957C175.59 47.157 175.426 47.0876 175.207 47.0876C175.036 47.0876 174.882 47.1441 174.746 47.2571C174.611 47.3702 174.503 47.5179 174.42 47.7002V50.7286H173.734V46.5598H174.381Z" fill="white"/>
<path d="M178.476 50.7286H177.79V46.5598H178.476V50.7286ZM178.53 45.454C178.53 45.5696 178.498 45.6659 178.433 45.7429C178.369 45.82 178.271 45.8585 178.139 45.8585C178.01 45.8585 177.913 45.82 177.848 45.7429C177.784 45.6659 177.751 45.5696 177.751 45.454C177.751 45.3384 177.784 45.2408 177.848 45.1612C177.913 45.0815 178.01 45.0417 178.139 45.0417C178.268 45.0417 178.365 45.0828 178.429 45.165C178.497 45.2446 178.53 45.341 178.53 45.454Z" fill="white"/>
<path d="M80.6828 56.6682C80.5872 56.6503 80.4839 56.6413 80.3729 56.6413C80.0216 56.6413 79.7763 56.8326 79.6368 57.2154V60.1975H78.9512V56.0287H79.6175L79.6291 56.4525C79.8124 56.1186 80.072 55.9516 80.4077 55.9516C80.5162 55.9516 80.6066 55.9696 80.6789 56.0055L80.6828 56.6682Z" fill="white"/>
<path d="M82.267 60.1975H81.5813V56.0287H82.267V60.1975ZM82.3212 54.9229C82.3212 55.0385 82.2889 55.1348 82.2244 55.2118C82.1598 55.2889 82.0617 55.3274 81.93 55.3274C81.8008 55.3274 81.704 55.2889 81.6394 55.2118C81.5749 55.1348 81.5426 55.0385 81.5426 54.9229C81.5426 54.8073 81.5749 54.7097 81.6394 54.6301C81.704 54.5504 81.8008 54.5106 81.93 54.5106C82.0591 54.5106 82.1559 54.5517 82.2205 54.6339C82.2876 54.7135 82.3212 54.8099 82.3212 54.9229Z" fill="white"/>
<path d="M84.6957 59.1611L85.4898 56.0287H86.1871L84.9436 60.1975H84.4323L83.1733 56.0287H83.8706L84.6957 59.1611Z" fill="white"/>
<path d="M86.8532 57.9204C86.8532 57.3142 87.0004 56.8352 87.2949 56.4833C87.5918 56.1288 87.9831 55.9516 88.4686 55.9516C88.9541 55.9516 89.3441 56.1237 89.6385 56.4679C89.9355 56.8121 90.0879 57.2809 90.0956 57.8742V58.3134C90.0956 58.9171 89.9484 59.3948 89.654 59.7467C89.3596 60.0986 88.967 60.2746 88.4764 60.2746C87.9908 60.2746 87.6009 60.1037 87.3065 59.7621C87.0147 59.4205 86.8636 58.9581 86.8532 58.3751V57.9204ZM87.5389 58.3134C87.5389 58.7424 87.6228 59.0802 87.7907 59.3267C87.9611 59.5708 88.1897 59.6928 88.4764 59.6928C89.0807 59.6928 89.3919 59.2587 89.4099 58.3905V57.9204C89.4099 57.494 89.3247 57.1576 89.1543 56.911C88.9838 56.6618 88.7553 56.5372 88.4686 56.5372C88.1871 56.5372 87.9611 56.6618 87.7907 56.911C87.6228 57.1576 87.5389 57.4928 87.5389 57.9166V58.3134Z" fill="white"/>
<path d="M91.8387 56.0287V60.7215C91.8309 61.4946 91.5236 61.8812 90.9167 61.8812C90.7772 61.8812 90.652 61.8581 90.5409 61.8119L90.5371 61.2416C90.6068 61.2622 90.6959 61.2725 90.8044 61.2725C90.9206 61.2725 91.0071 61.2288 91.0639 61.1415C91.1233 61.0567 91.153 60.9077 91.153 60.6945V56.0287H91.8387ZM91.8696 54.9229C91.8696 55.0385 91.8374 55.1348 91.7728 55.2118C91.7082 55.2889 91.6101 55.3274 91.4784 55.3274C91.3493 55.3274 91.2524 55.2889 91.1879 55.2118C91.1259 55.1348 91.0949 55.0385 91.0949 54.9229C91.0949 54.8073 91.1259 54.7097 91.1879 54.6301C91.2524 54.5504 91.3493 54.5106 91.4784 54.5106C91.6075 54.5106 91.7044 54.5517 91.7689 54.6339C91.8361 54.7135 91.8696 54.8099 91.8696 54.9229Z" fill="white"/>
<path d="M93.8103 60.1975H93.1246V54.2794H93.8103V60.1975Z" fill="white"/>
<path d="M97.2074 60.1975C97.1661 60.1076 97.1364 59.9561 97.1183 59.7429C96.8756 60.0973 96.5657 60.2746 96.1886 60.2746C95.809 60.2746 95.512 60.1692 95.2976 59.9586C95.0859 59.7454 94.98 59.4462 94.98 59.0609C94.98 58.6371 95.1246 58.3006 95.4139 58.0514C95.7031 57.8023 96.0995 57.6751 96.6031 57.67H97.1067V57.2269C97.1067 56.9778 97.0512 56.8005 96.9401 56.6952C96.8291 56.5899 96.6599 56.5372 96.4327 56.5372C96.2261 56.5372 96.0582 56.5989 95.9291 56.7222C95.7999 56.8429 95.7354 56.997 95.7354 57.1845H95.0497C95.0497 56.9713 95.113 56.7684 95.2395 56.5758C95.3661 56.3806 95.5365 56.2277 95.7509 56.1173C95.9652 56.0068 96.2041 55.9516 96.4675 55.9516C96.8962 55.9516 97.2216 56.0582 97.4437 56.2714C97.6684 56.482 97.7833 56.7902 97.7885 57.1961V59.2998C97.7911 59.6208 97.835 59.8995 97.9202 60.1359V60.1975H97.2074ZM96.2932 59.6542C96.4611 59.6542 96.6212 59.608 96.7736 59.5155C96.9259 59.4231 97.037 59.3075 97.1067 59.1688V58.1747H96.7193C96.3939 58.1799 96.137 58.2531 95.9484 58.3943C95.7599 58.533 95.6657 58.7283 95.6657 58.98C95.6657 59.2163 95.7134 59.3884 95.809 59.4963C95.9045 59.6016 96.0659 59.6542 96.2932 59.6542Z" fill="white"/>
<path d="M99.6594 56.0287L99.6787 56.4794C99.9447 56.1276 100.284 55.9516 100.698 55.9516C101.439 55.9516 101.814 56.4435 101.825 57.4273V60.1975H101.143V57.4581C101.143 57.1319 101.088 56.9007 100.976 56.7646C100.868 56.6259 100.704 56.5565 100.484 56.5565C100.314 56.5565 100.16 56.613 100.024 56.726C99.8892 56.8391 99.7808 56.9867 99.6981 57.1691V60.1975H99.0125V56.0287H99.6594Z" fill="white"/>
<path d="M103.913 55.0192V56.0287H104.544V56.5796H103.913V59.1649C103.913 59.3293 103.94 59.4539 103.994 59.5387C104.048 59.6234 104.141 59.6658 104.273 59.6658C104.363 59.6658 104.455 59.6504 104.548 59.6196L104.54 60.1975C104.385 60.2489 104.226 60.2746 104.064 60.2746C103.793 60.2746 103.586 60.1782 103.444 59.9856C103.302 59.7929 103.231 59.5207 103.231 59.1688V56.5796H102.592V56.0287H103.231V55.0192H103.913Z" fill="white"/>
<path d="M106.26 60.1975H105.574V56.0287H106.26V60.1975ZM106.314 54.9229C106.314 55.0385 106.282 55.1348 106.217 55.2118C106.153 55.2889 106.055 55.3274 105.923 55.3274C105.794 55.3274 105.697 55.2889 105.632 55.2118C105.568 55.1348 105.536 55.0385 105.536 54.9229C105.536 54.8073 105.568 54.7097 105.632 54.6301C105.697 54.5504 105.794 54.5106 105.923 54.5106C106.052 54.5106 106.149 54.5517 106.214 54.6339C106.281 54.7135 106.314 54.8099 106.314 54.9229Z" fill="white"/>
<path d="M109.231 56.6682C109.135 56.6503 109.032 56.6413 108.921 56.6413C108.57 56.6413 108.325 56.8326 108.185 57.2154V60.1975H107.499V56.0287H108.166L108.177 56.4525C108.361 56.1186 108.62 55.9516 108.956 55.9516C109.064 55.9516 109.155 55.9696 109.227 56.0055L109.231 56.6682Z" fill="white"/>
<path d="M110.815 60.1975H110.13V56.0287H110.815V60.1975ZM110.87 54.9229C110.87 55.0385 110.837 55.1348 110.773 55.2118C110.708 55.2889 110.61 55.3274 110.478 55.3274C110.349 55.3274 110.252 55.2889 110.188 55.2118C110.123 55.1348 110.091 55.0385 110.091 54.9229C110.091 54.8073 110.123 54.7097 110.188 54.6301C110.252 54.5504 110.349 54.5106 110.478 54.5106C110.607 54.5106 110.704 54.5517 110.769 54.6339C110.836 54.7135 110.87 54.8099 110.87 54.9229Z" fill="white"/>
<path d="M114.092 59.1302C114.092 58.9838 114.037 58.858 113.926 58.7527C113.815 58.6473 113.6 58.5241 113.283 58.3828C112.913 58.2312 112.653 58.1015 112.5 57.9936C112.35 57.8858 112.238 57.7637 112.163 57.6276C112.088 57.4889 112.051 57.3245 112.051 57.1344C112.051 56.7954 112.175 56.5141 112.423 56.2907C112.673 56.0646 112.992 55.9516 113.38 55.9516C113.788 55.9516 114.116 56.0698 114.364 56.3061C114.611 56.5424 114.735 56.8455 114.735 57.2154H114.054C114.054 57.0278 113.99 56.8686 113.864 56.7376C113.737 56.604 113.576 56.5372 113.38 56.5372C113.178 56.5372 113.019 56.5899 112.903 56.6952C112.789 56.798 112.733 56.9367 112.733 57.1113C112.733 57.25 112.774 57.3618 112.857 57.4465C112.942 57.5313 113.145 57.643 113.465 57.7817C113.974 57.9795 114.32 58.1734 114.503 58.3635C114.686 58.551 114.778 58.7899 114.778 59.0802C114.778 59.4423 114.653 59.7326 114.402 59.9509C114.152 60.1667 113.816 60.2746 113.395 60.2746C112.959 60.2746 112.605 60.15 112.334 59.9008C112.062 59.6517 111.927 59.3357 111.927 58.953H112.616C112.624 59.1842 112.695 59.3653 112.829 59.4963C112.964 59.6273 113.152 59.6928 113.395 59.6928C113.622 59.6928 113.795 59.6427 113.914 59.5425C114.033 59.4398 114.092 59.3023 114.092 59.1302Z" fill="white"/>
<path d="M116.517 56.4563C116.778 56.1198 117.111 55.9516 117.517 55.9516C118.258 55.9516 118.634 56.4435 118.644 57.4273V60.1975H117.962V57.4581C117.962 57.1319 117.907 56.9007 117.796 56.7646C117.687 56.6259 117.523 56.5565 117.304 56.5565C117.133 56.5565 116.979 56.613 116.843 56.726C116.708 56.8391 116.6 56.9867 116.517 57.1691V60.1975H115.832V54.2794H116.517V56.4563Z" fill="white"/>
<path d="M122.858 58.2903L122.494 58.7064V60.1975H121.808V54.2794H122.494V57.8203L123.8 56.0287H124.621L123.288 57.7702L124.795 60.1975H123.997L122.858 58.2903Z" fill="white"/>
<path d="M125.399 57.9204C125.399 57.3142 125.547 56.8352 125.841 56.4833C126.138 56.1288 126.529 55.9516 127.015 55.9516C127.5 55.9516 127.89 56.1237 128.185 56.4679C128.482 56.8121 128.634 57.2809 128.642 57.8742V58.3134C128.642 58.9171 128.494 59.3948 128.2 59.7467C127.906 60.0986 127.513 60.2746 127.022 60.2746C126.537 60.2746 126.147 60.1037 125.853 59.7621C125.561 59.4205 125.41 58.9581 125.399 58.3751V57.9204ZM126.085 58.3134C126.085 58.7424 126.169 59.0802 126.337 59.3267C126.507 59.5708 126.736 59.6928 127.022 59.6928C127.627 59.6928 127.938 59.2587 127.956 58.3905V57.9204C127.956 57.494 127.871 57.1576 127.7 56.911C127.53 56.6618 127.301 56.5372 127.015 56.5372C126.733 56.5372 126.507 56.6618 126.337 56.911C126.169 57.1576 126.085 57.4928 126.085 57.9166V58.3134Z" fill="white"/>
<path d="M130.331 56.0287L130.346 56.4139C130.602 56.1057 130.939 55.9516 131.357 55.9516C131.825 55.9516 132.151 56.1532 132.337 56.5565C132.601 56.1532 132.967 55.9516 133.437 55.9516C134.209 55.9516 134.605 56.4306 134.623 57.3887V60.1975H133.941V57.4542C133.941 57.1511 133.887 56.9264 133.778 56.78C133.67 56.631 133.486 56.5565 133.228 56.5565C133.022 56.5565 132.854 56.6361 132.725 56.7954C132.595 56.9546 132.52 57.1576 132.5 57.4041V60.1975H131.81V57.4234C131.803 56.8455 131.566 56.5565 131.101 56.5565C130.755 56.5565 130.511 56.7286 130.369 57.0728V60.1975H129.687V56.0287H130.331Z" fill="white"/>
<path d="M138.845 58.3134C138.845 58.9736 138.725 59.4654 138.485 59.7891C138.247 60.1127 137.91 60.2746 137.474 60.2746C137.053 60.2746 136.729 60.1166 136.501 59.8007V61.8003H135.82V56.0287H136.439L136.474 56.491C136.704 56.1314 137.033 55.9516 137.462 55.9516C137.922 55.9516 138.265 56.1109 138.492 56.4294C138.72 56.7479 138.837 57.2243 138.845 57.8588V58.3134ZM138.163 57.9243C138.163 57.4568 138.091 57.1126 137.946 56.8917C137.802 56.6682 137.569 56.5565 137.249 56.5565C136.921 56.5565 136.672 56.7196 136.501 57.0458V59.215C136.669 59.5335 136.921 59.6928 137.257 59.6928C137.567 59.6928 137.794 59.5823 137.938 59.3614C138.086 59.138 138.161 58.7976 138.163 58.3404V57.9243Z" fill="white"/>
<path d="M142.045 60.1975C142.003 60.1076 141.974 59.9561 141.955 59.7429C141.713 60.0973 141.403 60.2746 141.026 60.2746C140.646 60.2746 140.349 60.1692 140.135 59.9586C139.923 59.7454 139.817 59.4462 139.817 59.0609C139.817 58.6371 139.962 58.3006 140.251 58.0514C140.54 57.8023 140.937 57.6751 141.44 57.67H141.944V57.2269C141.944 56.9778 141.888 56.8005 141.777 56.6952C141.666 56.5899 141.497 56.5372 141.27 56.5372C141.063 56.5372 140.895 56.5989 140.766 56.7222C140.637 56.8429 140.573 56.997 140.573 57.1845H139.887C139.887 56.9713 139.95 56.7684 140.077 56.5758C140.203 56.3806 140.374 56.2277 140.588 56.1173C140.802 56.0068 141.041 55.9516 141.305 55.9516C141.733 55.9516 142.059 56.0582 142.281 56.2714C142.506 56.482 142.62 56.7902 142.626 57.1961V59.2998C142.628 59.6208 142.672 59.8995 142.757 60.1359V60.1975H142.045ZM141.13 59.6542C141.298 59.6542 141.458 59.608 141.611 59.5155C141.763 59.4231 141.874 59.3075 141.944 59.1688V58.1747H141.556C141.231 58.1799 140.974 58.2531 140.786 58.3943C140.597 58.533 140.503 58.7283 140.503 58.98C140.503 59.2163 140.551 59.3884 140.646 59.4963C140.742 59.6016 140.903 59.6542 141.13 59.6542Z" fill="white"/>
<path d="M144.497 56.0287L144.516 56.4794C144.782 56.1276 145.121 55.9516 145.535 55.9516C146.276 55.9516 146.652 56.4435 146.662 57.4273V60.1975H145.98V57.4581C145.98 57.1319 145.925 56.9007 145.814 56.7646C145.705 56.6259 145.541 56.5565 145.322 56.5565C145.151 56.5565 144.998 56.613 144.861 56.726C144.726 56.8391 144.618 56.9867 144.535 57.1691V60.1975H143.85V56.0287H144.497Z" fill="white"/>
<path d="M148.591 60.1975H147.905V56.0287H148.591V60.1975ZM148.645 54.9229C148.645 55.0385 148.613 55.1348 148.548 55.2118C148.484 55.2889 148.386 55.3274 148.254 55.3274C148.125 55.3274 148.028 55.2889 147.963 55.2118C147.899 55.1348 147.867 55.0385 147.867 54.9229C147.867 54.8073 147.899 54.7097 147.963 54.6301C148.028 54.5504 148.125 54.5106 148.254 54.5106C148.383 54.5106 148.48 54.5517 148.544 54.6339C148.612 54.7135 148.645 54.8099 148.645 54.9229Z" fill="white"/>
<path d="M150.977 59.0647L151.74 56.0287H152.468L151.097 60.787C150.994 61.144 150.848 61.415 150.659 61.6C150.471 61.7875 150.257 61.8812 150.016 61.8812C149.923 61.8812 149.805 61.8607 149.66 61.8196V61.2416L149.811 61.257C150.01 61.257 150.165 61.2095 150.276 61.1145C150.39 61.022 150.481 60.8602 150.551 60.629L150.687 60.1628L149.455 56.0287H150.202L150.977 59.0647Z" fill="white"/>
<path d="M155.393 60.1975C155.352 60.1076 155.322 59.9561 155.304 59.7429C155.061 60.0973 154.751 60.2746 154.374 60.2746C153.995 60.2746 153.698 60.1692 153.483 59.9586C153.271 59.7454 153.166 59.4462 153.166 59.0609C153.166 58.6371 153.31 58.3006 153.599 58.0514C153.889 57.8023 154.285 57.6751 154.789 57.67H155.292V57.2269C155.292 56.9778 155.237 56.8005 155.126 56.6952C155.015 56.5899 154.846 56.5372 154.618 56.5372C154.412 56.5372 154.244 56.5989 154.115 56.7222C153.986 56.8429 153.921 56.997 153.921 57.1845H153.235C153.235 56.9713 153.299 56.7684 153.425 56.5758C153.552 56.3806 153.722 56.2277 153.936 56.1173C154.151 56.0068 154.39 55.9516 154.653 55.9516C155.082 55.9516 155.407 56.0582 155.629 56.2714C155.854 56.482 155.969 56.7902 155.974 57.1961V59.2998C155.977 59.6208 156.021 59.8995 156.106 60.1359V60.1975H155.393ZM154.479 59.6542C154.647 59.6542 154.807 59.608 154.959 59.5155C155.112 59.4231 155.223 59.3075 155.292 59.1688V58.1747H154.905C154.58 58.1799 154.323 58.2531 154.134 58.3943C153.946 58.533 153.851 58.7283 153.851 58.98C153.851 59.2163 153.899 59.3884 153.995 59.4963C154.09 59.6016 154.252 59.6542 154.479 59.6542Z" fill="white"/>
<path d="M159.236 59.1302C159.236 58.9838 159.18 58.858 159.069 58.7527C158.958 58.6473 158.744 58.5241 158.426 58.3828C158.057 58.2312 157.796 58.1015 157.644 57.9936C157.494 57.8858 157.381 57.7637 157.307 57.6276C157.232 57.4889 157.194 57.3245 157.194 57.1344C157.194 56.7954 157.318 56.5141 157.566 56.2907C157.817 56.0646 158.136 55.9516 158.523 55.9516C158.931 55.9516 159.259 56.0698 159.507 56.3061C159.755 56.5424 159.879 56.8455 159.879 57.2154H159.197C159.197 57.0278 159.134 56.8686 159.007 56.7376C158.881 56.604 158.719 56.5372 158.523 56.5372C158.321 56.5372 158.163 56.5899 158.046 56.6952C157.933 56.798 157.876 56.9367 157.876 57.1113C157.876 57.25 157.917 57.3618 158 57.4465C158.085 57.5313 158.288 57.643 158.608 57.7817C159.117 57.9795 159.463 58.1734 159.646 58.3635C159.83 58.551 159.921 58.7899 159.921 59.0802C159.921 59.4423 159.796 59.7326 159.546 59.9509C159.295 60.1667 158.959 60.2746 158.538 60.2746C158.102 60.2746 157.748 60.15 157.477 59.9008C157.206 59.6517 157.07 59.3357 157.07 58.953H157.76C157.767 59.1842 157.839 59.3653 157.973 59.4963C158.107 59.6273 158.296 59.6928 158.538 59.6928C158.766 59.6928 158.939 59.6427 159.057 59.5425C159.176 59.4398 159.236 59.3023 159.236 59.1302Z" fill="white"/>
<path d="M161.715 60.1975H161.029V56.0287H161.715V60.1975ZM161.769 54.9229C161.769 55.0385 161.737 55.1348 161.672 55.2118C161.608 55.2889 161.509 55.3274 161.378 55.3274C161.249 55.3274 161.152 55.2889 161.087 55.2118C161.023 55.1348 160.99 55.0385 160.99 54.9229C160.99 54.8073 161.023 54.7097 161.087 54.6301C161.152 54.5504 161.249 54.5106 161.378 54.5106C161.507 54.5106 161.604 54.5517 161.668 54.6339C161.735 54.7135 161.769 54.8099 161.769 54.9229Z" fill="white"/>
<defs>
<linearGradient id="paint0_linear_128_5103" x1="2.8986" y1="52.5722" x2="67.9618" y2="15.3773" gradientUnits="userSpaceOnUse">
<stop stop-color="#D13291"/>
<stop offset="1" stop-color="#814096"/>
</linearGradient>
</defs>
</svg>
