<?xml version="1.0" standalone="no"?>
<!DOCTYPE svg PUBLIC "-//W3C//DTD SVG 20010904//EN"
 "http://www.w3.org/TR/2001/REC-SVG-20010904/DTD/svg10.dtd">
<svg version="1.0" xmlns="http://www.w3.org/2000/svg"
 width="800.000000pt" height="800.000000pt" viewBox="0 0 800.000000 800.000000"
 preserveAspectRatio="xMidYMid meet">
<metadata>
Created by potrace 1.14, written by Peter Selinger 2001-2017
</metadata>
<g transform="translate(0.000000,800.000000) scale(0.100000,-0.100000)"
fill="#000000" stroke="none">
<path d="M4239 7979 c0 -13 0 -201 -1 -418 0 -377 -1 -394 -19 -398 -10 -3
-19 -9 -19 -13 0 -4 -8 -10 -17 -13 -10 -3 -40 -20 -68 -36 -27 -17 -63 -38
-80 -46 -16 -8 -39 -21 -50 -28 -44 -28 -103 -62 -155 -90 -30 -17 -57 -33
-60 -36 -3 -4 -16 -12 -30 -18 -14 -7 -47 -26 -75 -42 -27 -16 -61 -36 -75
-44 -14 -7 -69 -39 -122 -70 -54 -32 -102 -57 -107 -57 -5 0 -11 -4 -13 -8 -1
-4 -50 -34 -108 -67 -57 -33 -112 -64 -121 -70 -50 -29 -131 -75 -184 -105
-33 -18 -71 -41 -85 -50 -14 -9 -50 -31 -80 -47 -30 -17 -95 -54 -145 -83 -49
-29 -110 -64 -135 -78 -25 -14 -61 -35 -80 -46 -20 -12 -45 -26 -55 -32 -19
-11 -20 -25 -23 -283 -1 -149 2 -271 6 -271 8 0 523 294 692 394 30 18 62 36
70 40 8 3 29 14 45 25 91 56 469 271 477 271 4 0 8 4 8 10 0 5 11 12 25 16 14
3 25 10 25 15 0 5 5 9 11 9 6 0 37 15 68 34 31 19 74 44 96 56 22 13 54 31 70
41 17 11 37 22 45 26 8 3 32 17 53 30 20 13 37 20 37 16 0 -5 4 -3 8 3 5 8
342 206 506 297 11 7 23 14 26 17 3 3 25 16 50 29 25 13 50 28 55 33 6 6 10
160 10 421 l1 412 -121 69 c-66 37 -131 75 -145 84 -14 9 -27 15 -30 15 -3 -1
-12 4 -20 11 -8 8 -37 25 -63 40 -26 14 -59 33 -72 42 -24 16 -25 15 -26 -7z"/>
<path d="M3700 7966 c-68 -44 -300 -176 -310 -176 -5 0 -10 -4 -10 -10 0 -5
-4 -10 -9 -10 -5 0 -54 -26 -108 -58 -54 -32 -105 -61 -113 -65 -8 -4 -24 -13
-35 -20 -24 -14 -166 -96 -215 -125 -19 -10 -75 -43 -125 -72 -49 -29 -117
-68 -150 -86 -33 -19 -67 -38 -75 -44 -8 -5 -35 -21 -60 -35 l-44 -26 -56 25
c-85 37 -124 45 -218 42 -94 -3 -102 -4 -179 -34 -143 -54 -264 -199 -296
-355 -48 -228 65 -457 273 -555 76 -35 145 -50 221 -47 94 4 126 12 207 50
166 78 278 248 281 426 1 26 6 38 19 43 17 5 52 26 62 36 3 3 19 12 35 20 17
8 32 18 35 21 3 3 19 12 35 21 17 8 46 24 65 35 19 11 64 37 100 58 36 21 79
46 95 56 17 10 53 30 80 44 28 15 57 33 66 41 8 8 18 14 21 14 5 0 260 145
298 170 8 5 39 22 68 37 28 15 52 31 52 35 0 4 6 8 13 8 38 1 39 10 39 276 -1
143 -1 265 -1 272 -1 18 -21 14 -61 -12z m-1443 -968 c42 -18 109 -92 118
-129 16 -71 1 -136 -42 -187 -115 -134 -337 -60 -348 116 -6 87 54 178 133
202 41 12 108 11 139 -2z"/>
<path d="M5527 7484 c-4 -4 -26 -8 -49 -9 -24 -1 -63 -8 -88 -15 -25 -8 -47
-14 -50 -14 -3 -1 -31 -16 -62 -33 -101 -57 -185 -159 -229 -278 -44 -120 -21
-304 52 -413 16 -24 29 -45 29 -47 0 -2 15 -19 33 -37 111 -111 239 -160 394
-153 63 3 153 27 188 51 30 21 44 18 133 -36 46 -28 85 -50 87 -50 3 0 34 -18
70 -40 36 -22 68 -40 71 -40 3 0 30 -16 60 -35 30 -19 56 -35 59 -35 2 0 37
-20 77 -43 189 -113 273 -161 278 -160 3 1 12 -4 20 -11 8 -7 58 -37 110 -66
52 -29 103 -60 113 -68 9 -8 17 -11 17 -6 0 5 4 3 9 -5 8 -12 20 -8 71 22 34
20 63 37 65 37 2 0 75 42 163 94 88 51 168 96 178 100 16 6 16 8 -4 22 -18 12
-177 105 -372 216 -207 119 -561 325 -581 339 -14 10 -28 16 -31 13 -3 -2 -11
2 -18 11 -7 8 -19 15 -26 15 -8 0 -14 5 -14 10 0 6 -4 10 -9 10 -5 0 -48 23
-96 50 -48 28 -91 50 -96 50 -5 0 -9 5 -9 10 0 6 -7 10 -15 10 -18 0 -35 39
-35 81 0 46 -47 176 -82 228 -83 120 -250 219 -368 217 -14 -1 -28 2 -31 7 -3
4 -8 4 -12 1z m53 -308 c0 9 85 -50 101 -70 27 -32 47 -103 42 -144 -6 -45
-44 -113 -79 -141 -54 -43 -148 -50 -211 -17 -67 35 -114 119 -107 194 6 76
84 172 141 172 10 0 24 4 32 9 7 5 28 5 47 1 19 -4 34 -6 34 -4z"/>
<path d="M1080 6451 c-25 -15 -72 -43 -106 -62 -195 -110 -304 -175 -304 -181
0 -4 24 -22 53 -38 28 -17 59 -35 67 -40 18 -11 189 -109 240 -138 147 -83
257 -147 271 -159 9 -7 19 -10 22 -6 4 3 7 1 7 -5 0 -7 6 -12 14 -12 8 0 18
-6 23 -12 4 -7 8 -506 9 -1108 1 -602 2 -1098 3 -1101 0 -4 63 -42 139 -85 75
-43 139 -82 140 -86 2 -5 9 -8 16 -8 8 0 25 -9 40 -21 14 -11 26 -17 26 -13 0
4 8 0 18 -8 23 -19 94 -60 98 -56 2 2 3 67 3 143 -1 77 -2 695 -4 1373 -4
1225 -5 1262 -34 1262 -9 0 -381 215 -397 229 -7 5 -27 17 -45 25 -19 9 -41
20 -49 26 -40 26 -190 110 -197 110 -4 0 -28 -13 -53 -29z"/>
<path d="M4910 6458 c-19 -11 -46 -28 -60 -37 -14 -8 -27 -16 -30 -16 -11 -1
-105 -60 -108 -67 -2 -4 -8 -8 -13 -8 -16 0 -199 -110 -199 -120 0 -4 17 -17
38 -28 55 -29 106 -58 151 -86 22 -15 45 -26 51 -26 5 0 10 -4 10 -8 0 -5 16
-14 35 -22 19 -8 35 -17 35 -22 0 -4 5 -8 10 -8 6 0 40 -18 76 -40 36 -22 70
-40 74 -40 4 0 13 -7 20 -15 7 -8 16 -13 20 -10 5 3 11 1 14 -4 5 -8 55 -38
141 -86 11 -7 106 -61 210 -122 105 -60 264 -152 355 -203 222 -125 381 -219
405 -240 24 -21 224 -140 235 -140 4 0 18 -8 31 -18 13 -10 44 -30 69 -43 25
-13 47 -27 48 -31 2 -5 8 -8 12 -8 5 0 79 -40 164 -90 86 -49 158 -90 161 -90
2 0 54 29 116 65 61 36 114 65 116 65 3 0 17 8 31 19 28 19 131 77 169 95 13
6 23 14 23 19 0 4 5 7 10 7 6 0 35 16 65 35 30 19 55 31 55 27 0 -4 4 -2 8 3
7 10 36 28 84 52 15 8 30 18 33 23 5 7 7 173 6 433 l-1 119 -47 -27 c-27 -15
-68 -39 -93 -53 -25 -14 -58 -33 -75 -43 -66 -39 -181 -104 -190 -108 -5 -2
-12 -7 -15 -10 -3 -3 -23 -15 -45 -26 -22 -11 -42 -22 -45 -25 -3 -3 -50 -32
-104 -63 l-100 -58 -78 46 c-42 25 -81 45 -84 45 -4 0 -15 6 -23 14 -9 7 -41
27 -71 43 -30 16 -74 42 -97 56 -24 15 -47 27 -53 27 -5 0 -10 5 -10 10 0 6
-5 10 -10 10 -6 0 -139 75 -298 166 -158 92 -303 176 -322 187 -19 10 -39 23
-45 27 -5 4 -30 18 -55 32 -25 14 -116 66 -203 116 -88 51 -163 92 -168 92 -5
0 -9 5 -9 10 0 6 -4 10 -9 10 -5 0 -90 47 -189 105 -100 58 -184 105 -189 105
-4 0 -24 -10 -43 -22z"/>
<path d="M3939 6092 c-24 -16 -69 -42 -99 -59 -30 -16 -111 -63 -180 -103 -69
-40 -141 -82 -160 -92 -19 -10 -51 -28 -70 -39 -95 -57 -462 -269 -465 -269
-2 0 -44 -25 -94 -55 -50 -30 -93 -55 -97 -55 -3 0 -18 -8 -32 -19 -15 -10
-58 -35 -97 -56 -38 -21 -72 -42 -75 -46 -3 -4 -17 -12 -30 -18 -14 -6 -47
-24 -75 -41 -27 -16 -57 -33 -65 -37 -53 -25 -208 -119 -225 -136 -19 -21 -19
-40 -20 -1075 0 -924 2 -1055 15 -1066 25 -21 205 -124 233 -133 9 -3 17 -9
17 -14 0 -5 4 -9 9 -9 5 0 87 -46 183 -101 95 -56 193 -113 218 -127 25 -14
59 -34 75 -44 17 -10 42 -24 58 -30 15 -7 27 -16 27 -20 0 -4 4 -8 9 -8 5 0
44 -20 85 -45 42 -25 81 -45 86 -45 6 0 10 -4 10 -10 0 -5 4 -10 10 -10 8 0
138 -72 180 -100 8 -6 22 -13 30 -17 8 -4 52 -28 97 -55 45 -26 86 -48 92 -48
6 0 11 -4 11 -10 0 -5 4 -10 9 -10 5 0 80 -41 166 -90 86 -50 171 -97 189
-105 32 -15 76 -17 76 -3 0 4 6 8 14 8 7 0 19 7 26 15 7 9 15 13 18 10 3 -3
12 1 21 9 9 7 48 30 86 51 39 21 72 42 73 46 2 5 12 9 23 9 10 0 19 5 19 10 0
6 4 10 9 10 5 0 45 21 88 47 43 25 103 60 133 76 30 17 57 33 60 37 3 3 21 14
40 23 19 10 49 26 65 37 17 10 41 25 55 33 14 7 117 67 230 132 113 65 237
136 275 158 39 21 90 52 115 67 25 15 65 39 90 53 25 13 101 57 168 96 68 39
127 71 130 71 4 1 20 12 37 25 l29 24 1 1056 c0 1044 0 1056 -20 1074 -22 19
-141 90 -335 199 -69 38 -165 94 -215 123 -49 29 -103 60 -120 69 -16 9 -41
23 -55 31 -14 9 -101 60 -195 114 -93 53 -180 104 -192 111 -13 8 -25 13 -27
12 -2 -2 -12 4 -22 13 -11 9 -46 31 -79 49 -33 19 -103 59 -155 90 -227 135
-269 160 -344 199 -43 22 -84 41 -90 41 -7 0 -32 -13 -57 -28z m242 -512 c93
-55 174 -100 179 -100 6 0 10 -4 10 -10 0 -5 5 -10 11 -10 6 0 22 -9 35 -19
l24 -19 -107 -59 c-60 -32 -114 -59 -120 -61 -7 -2 -13 -8 -13 -13 0 -5 -5 -9
-10 -9 -6 0 -52 -23 -102 -52 l-92 -51 -30 18 c-17 9 -51 29 -76 43 -25 13
-76 43 -115 66 -38 22 -73 41 -77 41 -4 0 -13 6 -20 13 -6 6 -16 12 -20 12 -4
0 -29 13 -54 28 l-45 29 86 51 c48 29 90 52 95 52 4 0 13 7 20 15 7 9 15 14
17 12 2 -3 52 24 111 59 58 35 110 64 115 64 4 0 85 -45 178 -100z m-974 -392
c21 -12 56 -31 78 -43 51 -28 352 -203 382 -221 13 -8 24 -13 25 -12 2 1 23
-11 48 -28 25 -17 50 -33 55 -35 10 -4 142 -79 180 -102 100 -61 122 -74 137
-80 10 -3 42 -21 70 -40 29 -18 60 -36 68 -40 8 -3 98 -55 200 -114 l185 -108
1 -240 c1 -132 3 -244 4 -250 1 -5 2 -13 1 -18 -1 -10 -97 41 -346 185 -71 42
-206 120 -300 174 -93 54 -172 101 -175 105 -3 4 -21 14 -40 23 -19 9 -48 25
-65 35 -16 11 -41 26 -55 34 -22 12 -86 49 -340 197 -122 71 -142 80 -162 69
-10 -5 -18 -7 -18 -5 0 3 -28 -12 -62 -34 -33 -22 -67 -40 -75 -40 -16 0 -15
3 -17 -130 -2 -116 -6 -108 77 -154 119 -66 144 -81 179 -103 21 -12 42 -23
48 -23 5 0 10 -4 10 -8 0 -5 16 -14 35 -22 19 -8 35 -17 35 -22 0 -4 4 -8 9
-8 10 0 34 -13 201 -111 41 -24 77 -44 80 -44 3 0 16 -8 30 -16 64 -40 152
-89 161 -89 5 0 9 -3 9 -7 0 -5 10 -13 23 -19 49 -23 112 -59 115 -66 2 -5 8
-8 12 -8 9 0 107 -54 160 -88 14 -9 28 -15 33 -14 4 1 7 -2 7 -8 0 -5 4 -10 9
-10 5 0 64 -32 132 -72 141 -81 234 -134 265 -149 21 -11 21 -15 21 -349 0
-186 3 -343 7 -349 4 -6 3 -11 -1 -11 -5 0 -9 -11 -8 -25 0 -22 -11 -32 -65
-61 -36 -19 -122 -70 -192 -112 -70 -42 -136 -81 -145 -87 -10 -5 -34 -20 -53
-31 -50 -31 -173 -94 -183 -94 -4 0 -110 59 -234 130 -123 72 -229 130 -234
130 -5 0 -9 5 -9 10 0 6 -4 10 -10 10 -7 0 -489 276 -665 381 -16 10 -51 29
-76 42 -98 54 -126 70 -179 104 l-56 36 0 253 c-1 140 1 254 3 254 3 0 32 -16
64 -35 33 -19 62 -35 64 -35 3 0 26 -13 52 -29 53 -32 64 -38 279 -161 82 -46
151 -87 154 -90 3 -3 14 -10 26 -15 11 -6 134 -75 273 -155 138 -80 266 -153
284 -163 17 -11 82 -48 144 -84 86 -49 118 -63 135 -58 34 11 120 57 142 78
11 9 22 17 26 17 3 0 6 51 5 112 l0 113 -70 38 c-38 21 -90 50 -115 63 -25 14
-52 29 -60 35 -17 11 -223 129 -290 167 -25 14 -73 43 -108 64 -34 21 -64 38
-66 38 -3 0 -94 52 -203 117 -109 64 -211 124 -228 133 -16 8 -86 49 -155 90
-69 41 -133 78 -143 82 -10 5 -42 23 -70 42 -29 18 -72 45 -97 59 l-45 27 0
365 -1 365 246 143 c135 78 277 161 315 184 39 23 71 43 72 43 1 0 19 -10 40
-22z m1651 4 c15 -10 34 -21 42 -24 8 -3 57 -31 109 -62 51 -31 97 -56 102
-56 5 0 9 -4 9 -10 0 -5 5 -10 11 -10 6 0 84 -43 173 -95 l163 -95 0 -845 0
-844 -36 -17 c-19 -9 -40 -21 -45 -26 -18 -15 -354 -208 -363 -208 -4 0 -8
375 -7 833 0 457 -3 839 -7 847 -4 9 -40 33 -81 54 -40 21 -81 45 -90 54 -10
8 -18 12 -18 8 0 -4 -12 2 -26 13 -15 12 -33 21 -40 21 -8 0 -14 4 -14 8 0 4
-22 19 -50 33 -27 13 -50 27 -50 32 0 4 -5 7 -11 7 -12 0 -204 114 -227 134
-9 9 1 19 44 44 31 18 60 32 65 32 5 0 9 4 9 9 0 5 12 14 28 20 15 6 83 45
152 85 69 41 127 75 128 75 2 1 16 -7 30 -17z"/>
<path d="M418 5719 c-2 -39 -1 -72 2 -74 3 -2 3 -110 0 -240 -3 -130 -3 -238
0 -240 3 -2 4 -203 2 -448 l-2 -445 -60 -44 c-33 -23 -65 -53 -71 -65 -7 -13
-16 -23 -20 -23 -4 0 -23 -28 -42 -62 -113 -202 -75 -457 90 -608 68 -63 170
-120 213 -120 9 0 20 -3 24 -7 4 -4 43 -8 88 -9 204 -4 375 100 463 281 95
196 50 438 -110 582 -27 25 -60 50 -72 56 -13 6 -23 17 -24 26 0 9 -1 289 -1
623 -1 334 -4 611 -7 616 -6 8 -182 112 -266 156 -22 11 -42 24 -45 27 -3 3
-32 20 -65 38 -33 18 -64 37 -69 42 -20 18 -24 8 -28 -62z m353 -1725 c76 -53
106 -159 68 -244 -56 -124 -213 -158 -313 -67 -110 101 -77 277 64 336 45 19
136 6 181 -25z"/>
<path d="M6159 4673 c-1 -5 -3 -438 -5 -963 -1 -525 -3 -1139 -4 -1364 l-2
-409 24 -18 c12 -10 40 -26 60 -36 21 -10 38 -22 38 -26 0 -5 4 -6 9 -3 5 3
14 -1 21 -9 7 -8 19 -15 26 -15 8 0 14 -4 14 -10 0 -5 4 -10 9 -10 9 0 97 -49
161 -89 14 -8 27 -16 30 -16 3 0 23 -12 45 -26 22 -14 65 -39 95 -56 30 -17
82 -46 116 -66 56 -33 64 -35 93 -24 17 6 31 15 31 19 0 4 4 8 10 8 5 0 42 19
82 43 40 24 80 46 88 50 8 4 24 13 35 20 11 7 47 27 80 46 33 18 74 43 92 55
l32 20 -116 68 c-63 37 -119 68 -124 68 -5 0 -9 5 -9 10 0 6 -3 9 -7 8 -5 -1
-19 5 -33 14 -53 34 -151 88 -160 88 -4 0 -10 3 -12 8 -3 7 -69 45 -115 67
-13 5 -23 13 -23 18 0 4 -4 7 -10 7 -5 0 -31 14 -57 30 l-48 31 0 1101 c0
1090 0 1101 -20 1112 -11 6 -22 14 -25 17 -3 3 -10 8 -15 10 -27 11 -220 124
-223 131 -2 4 -9 8 -16 8 -8 0 -25 9 -40 21 -14 11 -26 17 -26 13 0 -4 -8 0
-17 8 -26 22 -83 50 -84 41z"/>
<path d="M7268 4664 c-2 -1 -19 -6 -38 -9 -67 -11 -173 -70 -230 -127 -69 -69
-73 -74 -103 -134 -81 -161 -65 -365 40 -512 40 -56 123 -134 155 -144 9 -3
12 -146 13 -624 1 -340 3 -624 3 -630 1 -6 20 -19 42 -29 22 -10 40 -23 40
-28 0 -6 3 -7 6 -4 4 4 19 -2 33 -12 14 -10 85 -51 156 -91 72 -40 142 -82
157 -92 14 -10 29 -18 32 -18 3 0 5 174 6 386 0 213 3 390 5 395 3 4 1 10 -5
14 -6 4 -8 10 -5 15 7 12 8 458 1 469 -3 4 -3 11 0 14 4 3 6 55 5 116 l-2 109
45 31 c90 62 172 179 203 291 9 33 11 178 3 221 -5 26 -23 78 -41 115 -40 84
-139 187 -219 226 -53 26 -69 32 -122 45 -26 6 -175 13 -180 7z m162 -317 c60
-31 101 -91 108 -155 6 -62 -10 -109 -51 -155 -118 -132 -332 -55 -343 124 -8
150 152 255 286 186z"/>
<path d="M950 3064 c-102 -58 -201 -115 -220 -126 -19 -11 -97 -56 -173 -100
l-137 -80 0 -274 0 -275 23 12 c18 10 103 59 304 175 18 11 99 57 180 103 81
46 150 88 151 93 2 4 11 8 21 8 9 0 22 5 29 12 9 9 19 7 42 -10 16 -12 32 -22
34 -22 3 0 51 -27 106 -60 55 -33 103 -60 105 -60 3 0 29 -16 60 -35 30 -20
63 -39 73 -42 9 -4 46 -25 82 -48 36 -23 68 -42 73 -43 4 -1 17 -8 30 -16 12
-7 81 -47 152 -89 230 -132 323 -186 423 -244 53 -31 111 -64 127 -73 17 -9
129 -75 250 -145 121 -70 238 -137 260 -148 22 -11 42 -23 45 -28 3 -4 18 -13
34 -19 26 -9 37 -6 112 40 47 27 89 50 94 50 6 0 10 3 10 8 0 4 10 12 23 18
33 15 138 74 167 93 14 9 42 26 63 36 20 11 37 22 37 26 0 3 -12 12 -27 20
-16 7 -72 40 -126 71 -55 32 -100 58 -102 58 -2 0 -33 18 -69 40 -36 22 -70
40 -76 40 -5 0 -10 4 -10 8 0 8 -59 36 -72 33 -4 0 -51 25 -105 57 -54 32
-105 61 -113 65 -8 4 -33 19 -55 32 -22 14 -53 32 -70 41 -16 8 -43 23 -60 34
-16 10 -41 25 -55 33 -14 7 -42 23 -62 35 -21 12 -53 30 -70 41 -197 113 -307
176 -328 190 -14 8 -27 16 -30 16 -4 1 -87 48 -130 75 -34 21 -343 200 -345
200 -2 0 -49 27 -104 60 -56 33 -106 60 -111 60 -6 0 -10 5 -10 10 0 6 -4 10
-10 10 -5 0 -33 14 -62 31 -29 18 -73 43 -98 57 -25 13 -52 31 -61 38 -8 8
-20 14 -25 14 -5 0 -93 -48 -194 -106z"/>
<path d="M5585 2438 c-38 -22 -137 -80 -220 -128 -82 -48 -180 -106 -217 -129
-37 -22 -72 -41 -77 -41 -5 0 -11 -3 -13 -8 -1 -4 -82 -52 -178 -107 -96 -55
-182 -104 -192 -110 -9 -5 -45 -26 -80 -46 -78 -45 -103 -59 -253 -146 -66
-38 -181 -105 -255 -148 -74 -43 -176 -102 -227 -131 -50 -30 -96 -54 -102
-54 -6 0 -11 -4 -11 -9 0 -5 -8 -12 -17 -15 -10 -3 -27 -12 -38 -19 -11 -7
-51 -30 -90 -52 -38 -21 -72 -41 -75 -44 -3 -3 -21 -14 -40 -24 -61 -32 -95
-52 -100 -57 -3 -3 -27 -17 -53 -30 -27 -14 -52 -32 -56 -40 -6 -12 -8 -792
-2 -822 0 -3 58 -39 129 -79 70 -40 135 -79 145 -87 9 -8 17 -12 17 -9 0 3 35
-15 78 -41 42 -27 84 -51 92 -54 13 -5 15 42 13 391 -1 218 0 406 3 418 2 13
11 23 19 23 8 0 15 4 15 9 0 5 8 11 18 14 9 3 40 20 67 36 28 17 57 34 65 38
8 3 31 16 50 28 19 12 55 33 80 47 134 75 487 281 497 290 7 6 13 7 13 2 0 -5
4 -4 8 1 6 10 33 26 132 83 19 10 86 49 149 86 62 36 115 66 116 66 2 0 33 18
69 40 36 22 70 40 76 40 5 0 10 5 10 10 0 6 6 10 14 10 8 0 21 6 28 13 7 6 24
18 38 25 14 7 117 66 230 131 l205 118 3 276 c1 153 -1 277 -5 277 -5 0 -39
-19 -78 -42z"/>
<path d="M925 1947 c-116 -67 -223 -128 -238 -136 -31 -16 -32 -15 63 -71 51
-31 69 -41 153 -89 39 -22 280 -161 362 -209 33 -19 78 -45 100 -57 93 -53
371 -215 380 -222 6 -5 26 -16 45 -26 19 -10 69 -37 110 -61 l74 -43 3 -48 c5
-66 47 -188 85 -244 88 -128 234 -211 393 -222 27 -2 140 13 154 20 9 5 20 9
24 9 17 0 74 27 115 54 177 120 258 324 211 533 -41 177 -177 315 -364 368
-46 13 -181 15 -230 4 -31 -8 -129 -48 -138 -57 -8 -7 -41 10 -137 69 -14 9
-27 16 -30 16 -3 0 -21 10 -40 21 -98 59 -322 189 -380 220 -19 11 -37 21 -40
24 -3 3 -15 10 -27 17 -67 38 -362 208 -383 221 -14 9 -27 17 -30 17 -3 0 -10
3 -15 7 -6 3 -105 -49 -220 -115z m1608 -738 c43 -12 101 -59 123 -100 14 -27
21 -115 12 -150 -2 -9 -12 -29 -23 -45 -71 -109 -209 -127 -301 -39 -68 64
-85 139 -49 221 43 97 136 142 238 113z"/>
<path d="M5714 1675 c-220 -46 -388 -246 -393 -467 -1 -22 -6 -38 -13 -38 -6
0 -19 -6 -27 -14 -9 -7 -36 -24 -61 -37 -25 -13 -47 -26 -50 -29 -3 -3 -16
-11 -30 -18 -14 -7 -34 -18 -45 -25 -11 -7 -96 -56 -190 -110 -93 -54 -177
-102 -185 -107 -46 -29 -171 -100 -176 -100 -3 0 -18 -8 -32 -19 -15 -10 -48
-30 -73 -43 -78 -44 -94 -53 -99 -58 -3 -3 -26 -17 -52 -30 -27 -14 -48 -27
-49 -30 0 -3 -1 -124 -2 -269 -1 -176 1 -265 9 -268 5 -2 87 42 182 97 94 55
176 100 182 100 5 0 10 5 10 10 0 6 4 10 9 10 4 0 60 30 122 66 63 37 139 80
169 97 30 17 57 33 60 36 3 3 19 13 35 22 115 62 152 83 165 93 8 6 24 16 36
23 109 60 312 177 322 185 9 8 29 3 71 -16 223 -100 474 -31 616 168 70 99
105 251 84 361 -15 75 -18 83 -33 114 -9 17 -17 34 -18 38 -2 18 -48 81 -84
118 -119 122 -293 175 -460 140z m174 -301 c75 -31 121 -94 127 -172 7 -112
-72 -203 -183 -211 -156 -10 -262 148 -191 286 48 93 155 136 247 97z"/>
</g>
</svg>
